<mxfile host="app.diagrams.net" modified="2022-06-06T12:18:30.254Z" agent="5.0 (Macintosh; Intel Mac OS X 10_15_7) AppleWebKit/537.36 (KHTML, like Gecko) Chrome/102.0.5005.61 Safari/537.36" etag="Csqo-ffX2u3esNrixl73" version="19.0.0" type="github" pages="3">
  <diagram id="3SRqZhgNDh1fxQBIlJOG" name="配置平台C4模型图">
    <mxGraphModel dx="2353" dy="1160" grid="1" gridSize="10" guides="1" tooltips="1" connect="1" arrows="1" fold="1" page="0" pageScale="1" pageWidth="827" pageHeight="1169" background="none" math="0" shadow="0">
      <root>
        <mxCell id="w6ue0_b44oE_nx133fVt-0" />
        <mxCell id="w6ue0_b44oE_nx133fVt-1" parent="w6ue0_b44oE_nx133fVt-0" />
        <mxCell id="CgoHBH6TokZNexpMa-iC-0" value="" style="rounded=0;whiteSpace=wrap;html=1;sketch=1;hachureGap=4;fontFamily=Ma Shan Zheng;fontSource=https%3A%2F%2Ffonts.googleapis.com%2Fcss%3Ffamily%3DMa%2BShan%2BZheng;fontSize=20;dashed=1;" parent="w6ue0_b44oE_nx133fVt-1" vertex="1">
          <mxGeometry x="-46" y="-15" width="458" height="828" as="geometry" />
        </mxCell>
        <mxCell id="w6ue0_b44oE_nx133fVt-6" style="edgeStyle=none;curved=1;rounded=1;sketch=1;hachureGap=4;orthogonalLoop=1;jettySize=auto;html=1;entryX=0.5;entryY=0;entryDx=0;entryDy=0;entryPerimeter=0;fontFamily=Ma Shan Zheng;fontSource=https%3A%2F%2Ffonts.googleapis.com%2Fcss%3Ffamily%3DMa%2BShan%2BZheng;fontSize=16;fontColor=#000000;endArrow=open;startSize=14;endSize=14;sourcePerimeterSpacing=8;targetPerimeterSpacing=8;" parent="w6ue0_b44oE_nx133fVt-1" source="w6ue0_b44oE_nx133fVt-4" target="w6ue0_b44oE_nx133fVt-5" edge="1">
          <mxGeometry relative="1" as="geometry" />
        </mxCell>
        <mxCell id="PyyiJZqeHASOfHkt7WAJ-4" value="&lt;p class=&quot;p1&quot; style=&quot;margin: 0px ; font-stretch: normal ; line-height: normal ; font-family: &amp;#34;pingfang sc&amp;#34; ; font-size: 16px&quot;&gt;&lt;font style=&quot;font-size: 16px&quot;&gt;进行服务器信息管理，数据库信&lt;/font&gt;&lt;/p&gt;&lt;p class=&quot;p1&quot; style=&quot;margin: 0px ; font-stretch: normal ; line-height: normal ; font-family: &amp;#34;pingfang sc&amp;#34; ; font-size: 16px&quot;&gt;&lt;font style=&quot;font-size: 16px&quot;&gt;息管理需要校验配置项管理&lt;/font&gt;&lt;/p&gt;&lt;p class=&quot;p1&quot; style=&quot;margin: 0px ; font-stretch: normal ; font-size: 15px ; line-height: normal ; font-family: &amp;#34;pingfang sc&amp;#34;&quot;&gt;http/json&lt;/p&gt;" style="edgeLabel;html=1;align=center;verticalAlign=middle;resizable=0;points=[];fontSize=19;fontFamily=Architects Daughter;" parent="w6ue0_b44oE_nx133fVt-6" vertex="1" connectable="0">
          <mxGeometry x="-0.2011" y="3" relative="1" as="geometry">
            <mxPoint as="offset" />
          </mxGeometry>
        </mxCell>
        <mxCell id="yjWhWeNISjtse7EZsDsM-16" style="edgeStyle=none;curved=1;rounded=0;sketch=1;hachureGap=4;orthogonalLoop=1;jettySize=auto;html=1;entryX=0;entryY=0.25;entryDx=0;entryDy=0;entryPerimeter=0;fontFamily=Ma Shan Zheng;fontSource=https%3A%2F%2Ffonts.googleapis.com%2Fcss%3Ffamily%3DMa%2BShan%2BZheng;fontSize=16;endArrow=classic;endFill=1;startSize=14;endSize=14;sourcePerimeterSpacing=8;targetPerimeterSpacing=8;" parent="w6ue0_b44oE_nx133fVt-1" source="w6ue0_b44oE_nx133fVt-4" target="CgoHBH6TokZNexpMa-iC-2" edge="1">
          <mxGeometry relative="1" as="geometry" />
        </mxCell>
        <mxCell id="PyyiJZqeHASOfHkt7WAJ-3" value="&lt;p class=&quot;p1&quot; style=&quot;margin: 0px ; font-stretch: normal ; font-size: 17px ; line-height: normal ; font-family: &amp;#34;pingfang sc&amp;#34;&quot;&gt;通过nacos后端API&lt;/p&gt;&lt;p class=&quot;p1&quot; style=&quot;margin: 0px ; font-stretch: normal ; font-size: 17px ; line-height: normal ; font-family: &amp;#34;pingfang sc&amp;#34;&quot;&gt;完成nacos管理操作&lt;/p&gt;&lt;p class=&quot;p1&quot; style=&quot;margin: 0px ; font-stretch: normal ; font-size: 17px ; line-height: normal ; font-family: &amp;#34;pingfang sc&amp;#34;&quot;&gt;http/json&lt;/p&gt;" style="edgeLabel;html=1;align=center;verticalAlign=middle;resizable=0;points=[];fontSize=20;fontFamily=Architects Daughter;" parent="yjWhWeNISjtse7EZsDsM-16" vertex="1" connectable="0">
          <mxGeometry x="-0.1105" y="2" relative="1" as="geometry">
            <mxPoint as="offset" />
          </mxGeometry>
        </mxCell>
        <object placeholders="1" c4Name="配置平台web服务" c4Type="Container" c4Technology="react" c4Description="配置平台前端服务" label="&lt;font style=&quot;font-size: 18px;&quot;&gt;&lt;b style=&quot;font-size: 18px;&quot;&gt;%c4Name%&lt;/b&gt;&lt;/font&gt;&lt;div style=&quot;font-size: 18px;&quot;&gt;[%c4Type%: %c4Technology%]&lt;/div&gt;&lt;br style=&quot;font-size: 18px;&quot;&gt;&lt;div style=&quot;font-size: 18px;&quot;&gt;&lt;font style=&quot;font-size: 18px;&quot;&gt;&lt;font style=&quot;font-size: 18px;&quot;&gt;%c4Description%&lt;/font&gt;&lt;/font&gt;&lt;/div&gt;" id="w6ue0_b44oE_nx133fVt-4">
          <mxCell style="rounded=1;whiteSpace=wrap;html=1;fontSize=18;labelBackgroundColor=none;fillColor=#23A2D9;fontColor=#000000;align=center;arcSize=10;strokeColor=#0E7DAD;metaEdit=1;resizable=0;points=[[0.25,0,0],[0.5,0,0],[0.75,0,0],[1,0.25,0],[1,0.5,0],[1,0.75,0],[0.75,1,0],[0.5,1,0],[0.25,1,0],[0,0.75,0],[0,0.5,0],[0,0.25,0]];labelBorderColor=none;sketch=1;hachureGap=4;fontFamily=Ma Shan Zheng;fontSource=https%3A%2F%2Ffonts.googleapis.com%2Fcss%3Ffamily%3DMa%2BShan%2BZheng;" parent="w6ue0_b44oE_nx133fVt-1" vertex="1">
            <mxGeometry x="63" y="68" width="240" height="120" as="geometry" />
          </mxCell>
        </object>
        <mxCell id="w6ue0_b44oE_nx133fVt-8" style="edgeStyle=none;curved=1;rounded=1;sketch=1;hachureGap=4;orthogonalLoop=1;jettySize=auto;html=1;entryX=0.5;entryY=0;entryDx=0;entryDy=0;entryPerimeter=0;fontFamily=Ma Shan Zheng;fontSource=https%3A%2F%2Ffonts.googleapis.com%2Fcss%3Ffamily%3DMa%2BShan%2BZheng;fontSize=16;fontColor=#000000;endArrow=open;startSize=14;endSize=14;sourcePerimeterSpacing=8;targetPerimeterSpacing=8;" parent="w6ue0_b44oE_nx133fVt-1" source="w6ue0_b44oE_nx133fVt-5" target="w6ue0_b44oE_nx133fVt-7" edge="1">
          <mxGeometry relative="1" as="geometry" />
        </mxCell>
        <mxCell id="PyyiJZqeHASOfHkt7WAJ-5" value="&lt;p class=&quot;p1&quot; style=&quot;margin: 0px ; font-stretch: normal ; line-height: normal ; font-family: &amp;#34;pingfang sc&amp;#34;&quot;&gt;&lt;font style=&quot;font-size: 17px&quot;&gt;业务数据存储及查询&lt;/font&gt;&lt;/p&gt;" style="edgeLabel;html=1;align=center;verticalAlign=middle;resizable=0;points=[];fontSize=16;fontFamily=Architects Daughter;" parent="w6ue0_b44oE_nx133fVt-8" vertex="1" connectable="0">
          <mxGeometry x="-0.0366" relative="1" as="geometry">
            <mxPoint as="offset" />
          </mxGeometry>
        </mxCell>
        <mxCell id="w6ue0_b44oE_nx133fVt-10" style="edgeStyle=none;curved=1;rounded=1;sketch=1;hachureGap=4;orthogonalLoop=1;jettySize=auto;html=1;fontFamily=Ma Shan Zheng;fontSource=https%3A%2F%2Ffonts.googleapis.com%2Fcss%3Ffamily%3DMa%2BShan%2BZheng;fontSize=16;fontColor=#000000;endArrow=open;startSize=14;endSize=14;sourcePerimeterSpacing=8;targetPerimeterSpacing=8;" parent="w6ue0_b44oE_nx133fVt-1" source="w6ue0_b44oE_nx133fVt-5" target="w6ue0_b44oE_nx133fVt-9" edge="1">
          <mxGeometry relative="1" as="geometry" />
        </mxCell>
        <mxCell id="w6ue0_b44oE_nx133fVt-11" value="&lt;span style=&quot;font-family: &amp;#34;pingfang sc&amp;#34; ; font-size: 19px&quot;&gt;通过portainer api对服务&lt;br&gt;容器机进行重启&lt;br&gt;&lt;/span&gt;http/json" style="edgeLabel;html=1;align=center;verticalAlign=middle;resizable=0;points=[];fontSize=20;fontFamily=Ma Shan Zheng;fontColor=#000000;fontSource=https%3A%2F%2Ffonts.googleapis.com%2Fcss%3Ffamily%3DMa%2BShan%2BZheng;" parent="w6ue0_b44oE_nx133fVt-10" vertex="1" connectable="0">
          <mxGeometry x="-0.02" y="-6" relative="1" as="geometry">
            <mxPoint y="-1" as="offset" />
          </mxGeometry>
        </mxCell>
        <mxCell id="CgoHBH6TokZNexpMa-iC-4" style="edgeStyle=none;curved=1;rounded=0;sketch=1;hachureGap=4;orthogonalLoop=1;jettySize=auto;html=1;entryX=0;entryY=0.5;entryDx=0;entryDy=0;entryPerimeter=0;fontFamily=Ma Shan Zheng;fontSource=https%3A%2F%2Ffonts.googleapis.com%2Fcss%3Ffamily%3DMa%2BShan%2BZheng;fontSize=16;endArrow=open;startSize=14;endSize=14;sourcePerimeterSpacing=8;targetPerimeterSpacing=8;shadow=0;exitX=1;exitY=0.5;exitDx=0;exitDy=0;exitPerimeter=0;" parent="w6ue0_b44oE_nx133fVt-1" source="w6ue0_b44oE_nx133fVt-5" target="CgoHBH6TokZNexpMa-iC-2" edge="1">
          <mxGeometry relative="1" as="geometry" />
        </mxCell>
        <mxCell id="yjWhWeNISjtse7EZsDsM-17" value="读取初始化数据库和&lt;br&gt;数据库升级脚本执行&lt;br&gt;数据的初始化和升级" style="edgeLabel;html=1;align=center;verticalAlign=middle;resizable=0;points=[];fontSize=16;fontFamily=Ma Shan Zheng;" parent="CgoHBH6TokZNexpMa-iC-4" vertex="1" connectable="0">
          <mxGeometry x="-0.0454" y="1" relative="1" as="geometry">
            <mxPoint as="offset" />
          </mxGeometry>
        </mxCell>
        <mxCell id="yjWhWeNISjtse7EZsDsM-9" value="从nacos读取数据库初始化脚本和&lt;br style=&quot;font-size: 16px;&quot;&gt;数据库升级脚本，完成对业务数据&lt;br style=&quot;font-size: 16px;&quot;&gt;库的初始化和脚本升级" style="edgeStyle=none;curved=1;rounded=0;sketch=1;hachureGap=4;orthogonalLoop=1;jettySize=auto;html=1;fontFamily=Ma Shan Zheng;fontSource=https%3A%2F%2Ffonts.googleapis.com%2Fcss%3Ffamily%3DMa%2BShan%2BZheng;fontSize=16;endArrow=open;startSize=14;endSize=14;sourcePerimeterSpacing=8;targetPerimeterSpacing=8;entryX=0.242;entryY=0;entryDx=0;entryDy=0;entryPerimeter=0;exitX=1;exitY=0.75;exitDx=0;exitDy=0;exitPerimeter=0;" parent="w6ue0_b44oE_nx133fVt-1" source="w6ue0_b44oE_nx133fVt-5" target="yjWhWeNISjtse7EZsDsM-5" edge="1">
          <mxGeometry x="0.2613" y="-10" relative="1" as="geometry">
            <mxPoint x="542.9054441260746" y="672" as="targetPoint" />
            <mxPoint x="1" as="offset" />
          </mxGeometry>
        </mxCell>
        <mxCell id="yjWhWeNISjtse7EZsDsM-10" style="edgeStyle=none;curved=1;rounded=0;sketch=1;hachureGap=4;orthogonalLoop=1;jettySize=auto;html=1;entryX=0;entryY=0.25;entryDx=0;entryDy=0;entryPerimeter=0;fontFamily=Ma Shan Zheng;fontSource=https%3A%2F%2Ffonts.googleapis.com%2Fcss%3Ffamily%3DMa%2BShan%2BZheng;fontSize=14;endArrow=open;startSize=14;endSize=14;sourcePerimeterSpacing=8;targetPerimeterSpacing=8;exitX=1;exitY=0.75;exitDx=0;exitDy=0;exitPerimeter=0;dashed=1;" parent="w6ue0_b44oE_nx133fVt-1" source="w6ue0_b44oE_nx133fVt-5" target="yjWhWeNISjtse7EZsDsM-1" edge="1">
          <mxGeometry relative="1" as="geometry" />
        </mxCell>
        <mxCell id="yjWhWeNISjtse7EZsDsM-11" value="初始化业务服务所在服务器将&lt;br style=&quot;font-size: 16px;&quot;&gt;config-centere.env文件推送的&lt;br style=&quot;font-size: 16px;&quot;&gt;服务器的/usr/commandCenter&lt;br style=&quot;font-size: 16px;&quot;&gt;目录，同时也可对业务服务所&lt;br style=&quot;font-size: 16px;&quot;&gt;在容器进行重启&lt;br style=&quot;font-size: 16px;&quot;&gt;" style="edgeLabel;html=1;align=center;verticalAlign=middle;resizable=0;points=[];fontSize=16;fontFamily=Ma Shan Zheng;" parent="yjWhWeNISjtse7EZsDsM-10" vertex="1" connectable="0">
          <mxGeometry x="-0.0198" y="5" relative="1" as="geometry">
            <mxPoint x="1" y="1" as="offset" />
          </mxGeometry>
        </mxCell>
        <mxCell id="PyyiJZqeHASOfHkt7WAJ-1" style="edgeStyle=none;curved=1;rounded=0;sketch=1;hachureGap=4;orthogonalLoop=1;jettySize=auto;html=1;fontFamily=Architects Daughter;fontSource=https%3A%2F%2Ffonts.googleapis.com%2Fcss%3Ffamily%3DArchitects%2BDaughter;fontSize=16;endArrow=open;startSize=14;endSize=14;sourcePerimeterSpacing=8;targetPerimeterSpacing=8;" parent="w6ue0_b44oE_nx133fVt-1" source="w6ue0_b44oE_nx133fVt-5" target="PyyiJZqeHASOfHkt7WAJ-0" edge="1">
          <mxGeometry relative="1" as="geometry" />
        </mxCell>
        <mxCell id="PyyiJZqeHASOfHkt7WAJ-2" value="当移动端有配置更新后&lt;br&gt;通过实时通知服务将配置&lt;br&gt;更新项推送给移动端&lt;br&gt;ws协议" style="edgeLabel;html=1;align=center;verticalAlign=middle;resizable=0;points=[];fontSize=20;fontFamily=Architects Daughter;" parent="PyyiJZqeHASOfHkt7WAJ-1" vertex="1" connectable="0">
          <mxGeometry x="0.0024" y="2" relative="1" as="geometry">
            <mxPoint x="1" as="offset" />
          </mxGeometry>
        </mxCell>
        <mxCell id="PyyiJZqeHASOfHkt7WAJ-8" style="edgeStyle=none;curved=1;rounded=0;sketch=1;hachureGap=4;orthogonalLoop=1;jettySize=auto;html=1;fontFamily=Ma Shan Zheng;fontSource=https%3A%2F%2Ffonts.googleapis.com%2Fcss%3Ffamily%3DMa%2BShan%2BZheng;fontSize=36;endArrow=open;startSize=14;endSize=14;sourcePerimeterSpacing=8;targetPerimeterSpacing=8;" parent="w6ue0_b44oE_nx133fVt-1" source="w6ue0_b44oE_nx133fVt-5" target="PyyiJZqeHASOfHkt7WAJ-7" edge="1">
          <mxGeometry relative="1" as="geometry" />
        </mxCell>
        <mxCell id="PyyiJZqeHASOfHkt7WAJ-9" value="&lt;div style=&quot;text-align: left ; font-size: 18px&quot;&gt;&lt;font style=&quot;font-size: 18px&quot;&gt;通过portainer拿到容器id，通过&lt;/font&gt;&lt;/div&gt;&lt;div style=&quot;text-align: left ; font-size: 18px&quot;&gt;&lt;font style=&quot;font-size: 18px&quot;&gt;docker api完成对中间件的配置&lt;/font&gt;&lt;/div&gt;&lt;div style=&quot;text-align: left ; font-size: 18px&quot;&gt;&lt;font style=&quot;font-size: 18px&quot;&gt;拉取和容器重启&lt;/font&gt;&lt;/div&gt;" style="edgeLabel;html=1;align=center;verticalAlign=middle;resizable=0;points=[];fontSize=36;fontFamily=Ma Shan Zheng;" parent="PyyiJZqeHASOfHkt7WAJ-8" vertex="1" connectable="0">
          <mxGeometry x="0.0088" relative="1" as="geometry">
            <mxPoint as="offset" />
          </mxGeometry>
        </mxCell>
        <object placeholders="1" c4Name="配置平台后端服务" c4Type="Container" c4Technology="SpringBoot" c4Description="配置平台后端服务" label="&lt;font style=&quot;font-size: 18px;&quot;&gt;&lt;b style=&quot;font-size: 18px;&quot;&gt;%c4Name%&lt;/b&gt;&lt;/font&gt;&lt;div style=&quot;font-size: 18px;&quot;&gt;[%c4Type%: %c4Technology%]&lt;/div&gt;&lt;br style=&quot;font-size: 18px;&quot;&gt;&lt;div style=&quot;font-size: 18px;&quot;&gt;&lt;font style=&quot;font-size: 18px;&quot;&gt;&lt;font style=&quot;font-size: 18px;&quot;&gt;%c4Description%&lt;/font&gt;&lt;/font&gt;&lt;/div&gt;" id="w6ue0_b44oE_nx133fVt-5">
          <mxCell style="rounded=1;whiteSpace=wrap;html=1;fontSize=18;labelBackgroundColor=none;fillColor=#23A2D9;fontColor=#000000;align=center;arcSize=10;strokeColor=#0E7DAD;metaEdit=1;resizable=0;points=[[0.25,0,0],[0.5,0,0],[0.75,0,0],[1,0.25,0],[1,0.5,0],[1,0.75,0],[0.75,1,0],[0.5,1,0],[0.25,1,0],[0,0.75,0],[0,0.5,0],[0,0.25,0]];labelBorderColor=none;sketch=1;hachureGap=4;fontFamily=Ma Shan Zheng;fontSource=https%3A%2F%2Ffonts.googleapis.com%2Fcss%3Ffamily%3DMa%2BShan%2BZheng;" parent="w6ue0_b44oE_nx133fVt-1" vertex="1">
            <mxGeometry x="63" y="331" width="240" height="120" as="geometry" />
          </mxCell>
        </object>
        <object placeholders="1" c4Type="数据库服务" c4Container="Container " c4Technology="PostGrell" c4Description="业务存储数据库" label="&lt;font style=&quot;font-size: 16px;&quot;&gt;&lt;b style=&quot;font-size: 16px;&quot;&gt;%c4Type%&lt;/b&gt;&lt;/font&gt;&lt;div style=&quot;font-size: 16px;&quot;&gt;&lt;b style=&quot;font-size: 16px;&quot;&gt;[%c4Container%:&amp;nbsp;%c4Technology%]&lt;/b&gt;&lt;/div&gt;&lt;b style=&quot;font-size: 16px;&quot;&gt;&lt;br style=&quot;font-size: 16px;&quot;&gt;&lt;div style=&quot;font-size: 16px;&quot;&gt;&lt;font style=&quot;font-size: 16px;&quot;&gt;&lt;font style=&quot;font-size: 16px;&quot;&gt;%c4Description%&lt;/font&gt;&lt;/font&gt;&lt;/div&gt;&lt;/b&gt;" id="w6ue0_b44oE_nx133fVt-7">
          <mxCell style="shape=cylinder3;size=15;whiteSpace=wrap;html=1;boundedLbl=1;rounded=0;labelBackgroundColor=none;fillColor=#23A2D9;fontSize=16;fontColor=#000000;align=center;strokeColor=#0E7DAD;metaEdit=1;points=[[0.5,0,0],[1,0.25,0],[1,0.5,0],[1,0.75,0],[0.5,1,0],[0,0.75,0],[0,0.5,0],[0,0.25,0]];resizable=0;labelBorderColor=none;sketch=1;hachureGap=4;fontFamily=Ma Shan Zheng;fontSource=https%3A%2F%2Ffonts.googleapis.com%2Fcss%3Ffamily%3DMa%2BShan%2BZheng;" parent="w6ue0_b44oE_nx133fVt-1" vertex="1">
            <mxGeometry x="66" y="619" width="240" height="120" as="geometry" />
          </mxCell>
        </object>
        <object placeholders="1" c4Name="Portainer" c4Type="Software System" c4Description="Portainer服务" label="&lt;font style=&quot;font-size: 21px;&quot;&gt;&lt;b style=&quot;font-size: 21px;&quot;&gt;%c4Name%&lt;/b&gt;&lt;/font&gt;&lt;div style=&quot;font-size: 21px;&quot;&gt;[%c4Type%]&lt;/div&gt;&lt;br style=&quot;font-size: 21px;&quot;&gt;&lt;div style=&quot;font-size: 21px;&quot;&gt;&lt;font style=&quot;font-size: 21px;&quot;&gt;&lt;font style=&quot;font-size: 21px;&quot;&gt;%c4Description%&lt;/font&gt;&lt;/font&gt;&lt;/div&gt;" id="w6ue0_b44oE_nx133fVt-9">
          <mxCell style="rounded=1;whiteSpace=wrap;html=1;labelBackgroundColor=none;fillColor=#0050ef;align=center;arcSize=10;strokeColor=#001DBC;metaEdit=1;resizable=0;points=[[0.25,0,0],[0.5,0,0],[0.75,0,0],[1,0.25,0],[1,0.5,0],[1,0.75,0],[0.75,1,0],[0.5,1,0],[0.25,1,0],[0,0.75,0],[0,0.5,0],[0,0.25,0]];labelBorderColor=none;sketch=1;hachureGap=4;fontFamily=Ma Shan Zheng;fontSource=https%3A%2F%2Ffonts.googleapis.com%2Fcss%3Ffamily%3DMa%2BShan%2BZheng;fontSize=21;fontColor=#000000;" parent="w6ue0_b44oE_nx133fVt-1" vertex="1">
            <mxGeometry x="-500" y="20" width="240" height="120" as="geometry" />
          </mxCell>
        </object>
        <object placeholders="1" c4Name="Nacos" c4Type="Software System" c4Description="Nacos服务" label="&lt;font style=&quot;font-size: 21px;&quot;&gt;&lt;b style=&quot;font-size: 21px;&quot;&gt;%c4Name%&lt;/b&gt;&lt;/font&gt;&lt;div style=&quot;font-size: 21px;&quot;&gt;[%c4Type%]&lt;/div&gt;&lt;br style=&quot;font-size: 21px;&quot;&gt;&lt;div style=&quot;font-size: 21px;&quot;&gt;&lt;font style=&quot;font-size: 21px;&quot;&gt;&lt;font style=&quot;font-size: 21px;&quot;&gt;%c4Description%&lt;/font&gt;&lt;/font&gt;&lt;/div&gt;" id="CgoHBH6TokZNexpMa-iC-2">
          <mxCell style="rounded=1;whiteSpace=wrap;html=1;labelBackgroundColor=none;fillColor=#0050ef;align=center;arcSize=10;strokeColor=#001DBC;metaEdit=1;resizable=0;points=[[0.25,0,0],[0.5,0,0],[0.75,0,0],[1,0.25,0],[1,0.5,0],[1,0.75,0],[0.75,1,0],[0.5,1,0],[0.25,1,0],[0,0.75,0],[0,0.5,0],[0,0.25,0]];labelBorderColor=none;sketch=1;hachureGap=4;fontFamily=Ma Shan Zheng;fontSource=https%3A%2F%2Ffonts.googleapis.com%2Fcss%3Ffamily%3DMa%2BShan%2BZheng;fontSize=21;fontColor=#000000;glass=0;shadow=0;" parent="w6ue0_b44oE_nx133fVt-1" vertex="1">
            <mxGeometry x="660" y="30" width="240" height="120" as="geometry" />
          </mxCell>
        </object>
        <object placeholders="1" c4Name="业务服务" c4Type="Software System" c4Description="业务服务代表某个域的业务" label="&lt;font style=&quot;font-size: 19px;&quot;&gt;&lt;b style=&quot;font-size: 19px;&quot;&gt;%c4Name%&lt;/b&gt;&lt;/font&gt;&lt;div style=&quot;font-size: 19px;&quot;&gt;[%c4Type%]&lt;/div&gt;&lt;br style=&quot;font-size: 19px;&quot;&gt;&lt;div style=&quot;font-size: 19px;&quot;&gt;&lt;font style=&quot;font-size: 19px;&quot;&gt;&lt;font style=&quot;font-size: 19px;&quot;&gt;%c4Description%&lt;/font&gt;&lt;/font&gt;&lt;/div&gt;" id="yjWhWeNISjtse7EZsDsM-1">
          <mxCell style="rounded=1;whiteSpace=wrap;html=1;labelBackgroundColor=none;fillColor=#0050ef;align=center;arcSize=10;strokeColor=#001DBC;metaEdit=1;resizable=0;points=[[0.25,0,0],[0.5,0,0],[0.75,0,0],[1,0.25,0],[1,0.5,0],[1,0.75,0],[0.75,1,0],[0.5,1,0],[0.25,1,0],[0,0.75,0],[0,0.5,0],[0,0.25,0]];labelBorderColor=none;sketch=1;hachureGap=4;fontFamily=Ma Shan Zheng;fontSource=https%3A%2F%2Ffonts.googleapis.com%2Fcss%3Ffamily%3DMa%2BShan%2BZheng;fontSize=19;fontColor=#000000;glass=0;shadow=0;" parent="w6ue0_b44oE_nx133fVt-1" vertex="1">
            <mxGeometry x="660" y="339" width="240" height="120" as="geometry" />
          </mxCell>
        </object>
        <mxCell id="yjWhWeNISjtse7EZsDsM-14" style="edgeStyle=none;curved=1;rounded=0;sketch=1;hachureGap=4;orthogonalLoop=1;jettySize=auto;html=1;entryX=0;entryY=0.5;entryDx=0;entryDy=0;entryPerimeter=0;dashed=1;fontFamily=Ma Shan Zheng;fontSource=https%3A%2F%2Ffonts.googleapis.com%2Fcss%3Ffamily%3DMa%2BShan%2BZheng;fontSize=18;endArrow=none;startSize=14;endSize=14;sourcePerimeterSpacing=8;targetPerimeterSpacing=8;endFill=0;dashPattern=1 2;" parent="w6ue0_b44oE_nx133fVt-1" source="CgoHBH6TokZNexpMa-iC-0" target="yjWhWeNISjtse7EZsDsM-13" edge="1">
          <mxGeometry relative="1" as="geometry" />
        </mxCell>
        <object placeholders="1" c4Type="数据库服务" c4Container="Container " c4Technology="PostGrell" c4Description="业务存储数据库" label="&lt;font style=&quot;font-size: 15px;&quot;&gt;&lt;b style=&quot;font-size: 15px;&quot;&gt;%c4Type%&lt;/b&gt;&lt;/font&gt;&lt;div style=&quot;font-size: 15px;&quot;&gt;&lt;b style=&quot;font-size: 15px;&quot;&gt;[%c4Container%:&amp;nbsp;%c4Technology%]&lt;/b&gt;&lt;/div&gt;&lt;b style=&quot;font-size: 15px;&quot;&gt;&lt;br style=&quot;font-size: 15px;&quot;&gt;&lt;div style=&quot;font-size: 15px;&quot;&gt;&lt;font style=&quot;font-size: 15px;&quot;&gt;&lt;font style=&quot;font-size: 15px;&quot;&gt;%c4Description%&lt;/font&gt;&lt;/font&gt;&lt;/div&gt;&lt;/b&gt;" id="yjWhWeNISjtse7EZsDsM-5">
          <mxCell style="shape=cylinder3;size=15;whiteSpace=wrap;html=1;boundedLbl=1;rounded=0;labelBackgroundColor=none;fillColor=#23A2D9;fontSize=15;fontColor=#000000;align=center;strokeColor=#0E7DAD;metaEdit=1;points=[[0.5,0,0],[1,0.25,0],[1,0.5,0],[1,0.75,0],[0.5,1,0],[0,0.75,0],[0,0.5,0],[0,0.25,0]];resizable=0;labelBorderColor=none;sketch=1;hachureGap=4;fontFamily=Ma Shan Zheng;fontSource=https%3A%2F%2Ffonts.googleapis.com%2Fcss%3Ffamily%3DMa%2BShan%2BZheng;shadow=0;gradientColor=none;gradientDirection=north;" parent="w6ue0_b44oE_nx133fVt-1" vertex="1">
            <mxGeometry x="660" y="660" width="240" height="120" as="geometry" />
          </mxCell>
        </object>
        <mxCell id="yjWhWeNISjtse7EZsDsM-13" value="&lt;div style=&quot;text-align: left&quot;&gt;&lt;span style=&quot;font-size: 18px&quot;&gt;备注：出于安全考虑，用户只能选择sql进行升级，不能在业务进行sql输入，所以在最初脚本由各个网元上传，测试和运维人员只需要选择执行即可&lt;/span&gt;&lt;/div&gt;" style="shape=note;whiteSpace=wrap;html=1;backgroundOutline=1;darkOpacity=0.05;shadow=0;sketch=1;hachureGap=4;fontFamily=Ma Shan Zheng;fontSource=https%3A%2F%2Ffonts.googleapis.com%2Fcss%3Ffamily%3DMa%2BShan%2BZheng;fontSize=14;gradientDirection=north;spacingTop=2;spacingLeft=7;spacingRight=7;" parent="w6ue0_b44oE_nx133fVt-1" vertex="1">
          <mxGeometry x="990" y="490" width="250" height="237" as="geometry" />
        </mxCell>
        <object placeholders="1" c4Name="实时通知服务" c4Type="Software System" c4Description="实时通知服务" label="&lt;font style=&quot;font-size: 21px;&quot;&gt;&lt;b style=&quot;font-size: 21px;&quot;&gt;%c4Name%&lt;/b&gt;&lt;/font&gt;&lt;div style=&quot;font-size: 21px;&quot;&gt;[%c4Type%]&lt;/div&gt;&lt;br style=&quot;font-size: 21px;&quot;&gt;&lt;div style=&quot;font-size: 21px;&quot;&gt;&lt;font style=&quot;font-size: 21px;&quot;&gt;&lt;font style=&quot;font-size: 21px;&quot;&gt;%c4Description%&lt;/font&gt;&lt;/font&gt;&lt;/div&gt;" id="PyyiJZqeHASOfHkt7WAJ-0">
          <mxCell style="rounded=1;whiteSpace=wrap;html=1;labelBackgroundColor=none;fillColor=#0050ef;align=center;arcSize=10;strokeColor=#001DBC;metaEdit=1;resizable=0;points=[[0.25,0,0],[0.5,0,0],[0.75,0,0],[1,0.25,0],[1,0.5,0],[1,0.75,0],[0.75,1,0],[0.5,1,0],[0.25,1,0],[0,0.75,0],[0,0.5,0],[0,0.25,0]];labelBorderColor=none;sketch=1;hachureGap=4;fontFamily=Ma Shan Zheng;fontSource=https%3A%2F%2Ffonts.googleapis.com%2Fcss%3Ffamily%3DMa%2BShan%2BZheng;fontSize=21;fontColor=#000000;" parent="w6ue0_b44oE_nx133fVt-1" vertex="1">
            <mxGeometry x="-500" y="370" width="240" height="120" as="geometry" />
          </mxCell>
        </object>
        <mxCell id="PyyiJZqeHASOfHkt7WAJ-6" value="&lt;font style=&quot;font-size: 36px&quot;&gt;配置平台-容器图&lt;/font&gt;" style="text;strokeColor=none;fillColor=none;html=1;align=center;verticalAlign=middle;whiteSpace=wrap;rounded=0;dashed=1;sketch=1;hachureGap=4;fontFamily=Ma Shan Zheng;fontSource=https%3A%2F%2Ffonts.googleapis.com%2Fcss%3Ffamily%3DMa%2BShan%2BZheng;fontSize=17;" parent="w6ue0_b44oE_nx133fVt-1" vertex="1">
          <mxGeometry x="40" y="-130" width="350" height="30" as="geometry" />
        </mxCell>
        <object placeholders="1" c4Name="中间件（容器）" c4Type="Software System" c4Description="类似redis，activemq等" label="&lt;font style=&quot;font-size: 21px;&quot;&gt;&lt;b style=&quot;font-size: 21px;&quot;&gt;%c4Name%&lt;/b&gt;&lt;/font&gt;&lt;div style=&quot;font-size: 21px;&quot;&gt;[%c4Type%]&lt;/div&gt;&lt;br style=&quot;font-size: 21px;&quot;&gt;&lt;div style=&quot;font-size: 21px;&quot;&gt;&lt;font style=&quot;font-size: 21px;&quot;&gt;&lt;font style=&quot;font-size: 21px;&quot;&gt;%c4Description%&lt;/font&gt;&lt;/font&gt;&lt;/div&gt;" id="PyyiJZqeHASOfHkt7WAJ-7">
          <mxCell style="rounded=1;whiteSpace=wrap;html=1;labelBackgroundColor=none;fillColor=#0050ef;align=center;arcSize=10;strokeColor=#001DBC;metaEdit=1;resizable=0;points=[[0.25,0,0],[0.5,0,0],[0.75,0,0],[1,0.25,0],[1,0.5,0],[1,0.75,0],[0.75,1,0],[0.5,1,0],[0.25,1,0],[0,0.75,0],[0,0.5,0],[0,0.25,0]];labelBorderColor=none;sketch=1;hachureGap=4;fontFamily=Ma Shan Zheng;fontSource=https%3A%2F%2Ffonts.googleapis.com%2Fcss%3Ffamily%3DMa%2BShan%2BZheng;fontSize=21;fontColor=#000000;" parent="w6ue0_b44oE_nx133fVt-1" vertex="1">
            <mxGeometry x="-500" y="650" width="240" height="120" as="geometry" />
          </mxCell>
        </object>
      </root>
    </mxGraphModel>
  </diagram>
  <diagram id="sDCAhfoBXWwCWuBo0Qwh" name="平台架构整体规划">
    <mxGraphModel dx="5373" dy="3478" grid="0" gridSize="10" guides="1" tooltips="1" connect="1" arrows="1" fold="1" page="0" pageScale="1" pageWidth="827" pageHeight="1169" math="0" shadow="0">
      <root>
        <mxCell id="0" />
        <mxCell id="1" parent="0" />
        <mxCell id="yOwxqxkXujApihUdTshh-10" value="" style="rounded=0;whiteSpace=wrap;html=1;sketch=1;hachureGap=4;fontFamily=Architects Daughter;fontSource=https%3A%2F%2Ffonts.googleapis.com%2Fcss%3Ffamily%3DArchitects%2BDaughter;fontSize=20;fillColor=#b1ddf0;strokeColor=#10739e;" parent="1" vertex="1">
          <mxGeometry x="-810.5" y="524" width="1644" height="191" as="geometry" />
        </mxCell>
        <mxCell id="yOwxqxkXujApihUdTshh-16" value="" style="rounded=0;whiteSpace=wrap;html=1;sketch=1;hachureGap=4;fontFamily=Architects Daughter;fontSource=https%3A%2F%2Ffonts.googleapis.com%2Fcss%3Ffamily%3DArchitects%2BDaughter;fontSize=20;fillColor=#b1ddf0;strokeColor=#10739e;" parent="1" vertex="1">
          <mxGeometry x="-812" y="-41" width="1645" height="540" as="geometry" />
        </mxCell>
        <mxCell id="yOwxqxkXujApihUdTshh-27" value="" style="rounded=0;whiteSpace=wrap;html=1;sketch=1;hachureGap=4;fontFamily=Architects Daughter;fontSource=https%3A%2F%2Ffonts.googleapis.com%2Fcss%3Ffamily%3DArchitects%2BDaughter;fontSize=20;fontColor=#000000;" parent="1" vertex="1">
          <mxGeometry x="-796" y="-25" width="250" height="290" as="geometry" />
        </mxCell>
        <mxCell id="yOwxqxkXujApihUdTshh-28" value="" style="rounded=0;whiteSpace=wrap;html=1;sketch=1;hachureGap=4;fontFamily=Architects Daughter;fontSource=https%3A%2F%2Ffonts.googleapis.com%2Fcss%3Ffamily%3DArchitects%2BDaughter;fontSize=20;fontColor=#000000;" parent="1" vertex="1">
          <mxGeometry x="-519" y="-25" width="250" height="290" as="geometry" />
        </mxCell>
        <mxCell id="yOwxqxkXujApihUdTshh-29" value="" style="rounded=0;whiteSpace=wrap;html=1;sketch=1;hachureGap=4;fontFamily=Architects Daughter;fontSource=https%3A%2F%2Ffonts.googleapis.com%2Fcss%3Ffamily%3DArchitects%2BDaughter;fontSize=20;fontColor=#000000;" parent="1" vertex="1">
          <mxGeometry x="-242" y="-25" width="250" height="290" as="geometry" />
        </mxCell>
        <mxCell id="yOwxqxkXujApihUdTshh-30" value="" style="rounded=0;whiteSpace=wrap;html=1;sketch=1;hachureGap=4;fontFamily=Architects Daughter;fontSource=https%3A%2F%2Ffonts.googleapis.com%2Fcss%3Ffamily%3DArchitects%2BDaughter;fontSize=20;fontColor=#000000;" parent="1" vertex="1">
          <mxGeometry x="40" y="-26" width="780" height="290" as="geometry" />
        </mxCell>
        <mxCell id="yOwxqxkXujApihUdTshh-31" value="自动测试" style="rounded=0;whiteSpace=wrap;html=1;sketch=1;hachureGap=4;fontFamily=Architects Daughter;fontSource=https%3A%2F%2Ffonts.googleapis.com%2Fcss%3Ffamily%3DArchitects%2BDaughter;fontSize=20;fillColor=#1ba1e2;strokeColor=#006EAF;fontColor=#000000;" parent="1" vertex="1">
          <mxGeometry x="-776" y="21" width="210" height="70" as="geometry" />
        </mxCell>
        <mxCell id="yOwxqxkXujApihUdTshh-32" value="代码仓库" style="rounded=0;whiteSpace=wrap;html=1;sketch=1;hachureGap=4;fontFamily=Architects Daughter;fontSource=https%3A%2F%2Ffonts.googleapis.com%2Fcss%3Ffamily%3DArchitects%2BDaughter;fontSize=20;fillColor=#1ba1e2;strokeColor=#006EAF;fontColor=#000000;" parent="1" vertex="1">
          <mxGeometry x="-778" y="103" width="210" height="70" as="geometry" />
        </mxCell>
        <mxCell id="yOwxqxkXujApihUdTshh-33" value="持续集成" style="rounded=0;whiteSpace=wrap;html=1;sketch=1;hachureGap=4;fontFamily=Architects Daughter;fontSource=https%3A%2F%2Ffonts.googleapis.com%2Fcss%3Ffamily%3DArchitects%2BDaughter;fontSize=20;fillColor=#1ba1e2;strokeColor=#006EAF;fontColor=#000000;" parent="1" vertex="1">
          <mxGeometry x="-777" y="184" width="210" height="70" as="geometry" />
        </mxCell>
        <mxCell id="yOwxqxkXujApihUdTshh-34" value="构建服务" style="text;html=1;strokeColor=none;fillColor=none;align=center;verticalAlign=middle;whiteSpace=wrap;rounded=0;sketch=1;hachureGap=4;fontFamily=Architects Daughter;fontSource=https%3A%2F%2Ffonts.googleapis.com%2Fcss%3Ffamily%3DArchitects%2BDaughter;fontSize=25;fontColor=#000000;" parent="1" vertex="1">
          <mxGeometry x="-735" y="-16" width="113" height="28" as="geometry" />
        </mxCell>
        <mxCell id="yOwxqxkXujApihUdTshh-35" value="镜像仓库" style="rounded=0;whiteSpace=wrap;html=1;sketch=1;hachureGap=4;fontFamily=Architects Daughter;fontSource=https%3A%2F%2Ffonts.googleapis.com%2Fcss%3Ffamily%3DArchitects%2BDaughter;fontSize=20;fillColor=#1ba1e2;strokeColor=#006EAF;fontColor=#000000;" parent="1" vertex="1">
          <mxGeometry x="-494" y="21" width="210" height="70" as="geometry" />
        </mxCell>
        <mxCell id="yOwxqxkXujApihUdTshh-36" value="灰度发布" style="rounded=0;whiteSpace=wrap;html=1;sketch=1;hachureGap=4;fontFamily=Architects Daughter;fontSource=https%3A%2F%2Ffonts.googleapis.com%2Fcss%3Ffamily%3DArchitects%2BDaughter;fontSize=20;fillColor=#1ba1e2;strokeColor=#006EAF;fontColor=#000000;" parent="1" vertex="1">
          <mxGeometry x="-496" y="103" width="210" height="70" as="geometry" />
        </mxCell>
        <mxCell id="yOwxqxkXujApihUdTshh-37" value="发布管理" style="rounded=0;whiteSpace=wrap;html=1;sketch=1;hachureGap=4;fontFamily=Architects Daughter;fontSource=https%3A%2F%2Ffonts.googleapis.com%2Fcss%3Ffamily%3DArchitects%2BDaughter;fontSize=20;fillColor=#1ba1e2;strokeColor=#006EAF;fontColor=#000000;" parent="1" vertex="1">
          <mxGeometry x="-495" y="184" width="210" height="70" as="geometry" />
        </mxCell>
        <mxCell id="yOwxqxkXujApihUdTshh-38" value="发布服务" style="text;html=1;strokeColor=none;fillColor=none;align=center;verticalAlign=middle;whiteSpace=wrap;rounded=0;sketch=1;hachureGap=4;fontFamily=Architects Daughter;fontSource=https%3A%2F%2Ffonts.googleapis.com%2Fcss%3Ffamily%3DArchitects%2BDaughter;fontSize=25;fontColor=#000000;" parent="1" vertex="1">
          <mxGeometry x="-453" y="-16" width="113" height="28" as="geometry" />
        </mxCell>
        <mxCell id="yOwxqxkXujApihUdTshh-39" value="注册发现" style="rounded=0;whiteSpace=wrap;html=1;sketch=1;hachureGap=4;fontFamily=Architects Daughter;fontSource=https%3A%2F%2Ffonts.googleapis.com%2Fcss%3Ffamily%3DArchitects%2BDaughter;fontSize=20;fillColor=#1ba1e2;strokeColor=#006EAF;fontColor=#000000;" parent="1" vertex="1">
          <mxGeometry x="-219" y="23" width="210" height="70" as="geometry" />
        </mxCell>
        <mxCell id="yOwxqxkXujApihUdTshh-40" value="服务治理" style="rounded=0;whiteSpace=wrap;html=1;sketch=1;hachureGap=4;fontFamily=Architects Daughter;fontSource=https%3A%2F%2Ffonts.googleapis.com%2Fcss%3Ffamily%3DArchitects%2BDaughter;fontSize=20;fillColor=#1ba1e2;strokeColor=#006EAF;fontColor=#000000;" parent="1" vertex="1">
          <mxGeometry x="-221" y="105" width="210" height="70" as="geometry" />
        </mxCell>
        <mxCell id="yOwxqxkXujApihUdTshh-41" value="智能路由" style="rounded=0;whiteSpace=wrap;html=1;sketch=1;hachureGap=4;fontFamily=Architects Daughter;fontSource=https%3A%2F%2Ffonts.googleapis.com%2Fcss%3Ffamily%3DArchitects%2BDaughter;fontSize=20;fillColor=#1ba1e2;strokeColor=#006EAF;fontColor=#000000;" parent="1" vertex="1">
          <mxGeometry x="-220" y="186" width="210" height="70" as="geometry" />
        </mxCell>
        <mxCell id="yOwxqxkXujApihUdTshh-42" value="微服务治理" style="text;html=1;strokeColor=none;fillColor=none;align=center;verticalAlign=middle;whiteSpace=wrap;rounded=0;sketch=1;hachureGap=4;fontFamily=Architects Daughter;fontSource=https%3A%2F%2Ffonts.googleapis.com%2Fcss%3Ffamily%3DArchitects%2BDaughter;fontSize=25;fontColor=#000000;" parent="1" vertex="1">
          <mxGeometry x="-178" y="-14" width="149" height="28" as="geometry" />
        </mxCell>
        <mxCell id="yOwxqxkXujApihUdTshh-44" value="支撑服务组件" style="text;html=1;strokeColor=none;fillColor=none;align=center;verticalAlign=middle;whiteSpace=wrap;rounded=0;sketch=1;hachureGap=4;fontFamily=Architects Daughter;fontSource=https%3A%2F%2Ffonts.googleapis.com%2Fcss%3Ffamily%3DArchitects%2BDaughter;fontSize=25;fontColor=#000000;" parent="1" vertex="1">
          <mxGeometry x="339" y="-18" width="186" height="28" as="geometry" />
        </mxCell>
        <mxCell id="yOwxqxkXujApihUdTshh-53" value="" style="group" parent="1" vertex="1" connectable="0">
          <mxGeometry x="52" y="24" width="754" height="228" as="geometry" />
        </mxCell>
        <mxCell id="yOwxqxkXujApihUdTshh-43" value="Oracle" style="rounded=0;whiteSpace=wrap;html=1;sketch=1;hachureGap=4;fontFamily=Architects Daughter;fontSource=https%3A%2F%2Ffonts.googleapis.com%2Fcss%3Ffamily%3DArchitects%2BDaughter;fontSize=20;fillColor=#1ba1e2;strokeColor=#006EAF;fontColor=#000000;" parent="yOwxqxkXujApihUdTshh-53" vertex="1">
          <mxGeometry y="3.312348668280872" width="215.57734806629836" height="56.30992736077483" as="geometry" />
        </mxCell>
        <mxCell id="yOwxqxkXujApihUdTshh-45" value="Tomcat" style="rounded=0;whiteSpace=wrap;html=1;sketch=1;hachureGap=4;fontFamily=Architects Daughter;fontSource=https%3A%2F%2Ffonts.googleapis.com%2Fcss%3Ffamily%3DArchitects%2BDaughter;fontSize=20;fillColor=#1ba1e2;strokeColor=#006EAF;fontColor=#000000;" parent="yOwxqxkXujApihUdTshh-53" vertex="1">
          <mxGeometry x="268.69060773480663" y="2.2082324455205815" width="215.57734806629836" height="56.30992736077483" as="geometry" />
        </mxCell>
        <mxCell id="yOwxqxkXujApihUdTshh-46" value="nginx" style="rounded=0;whiteSpace=wrap;html=1;sketch=1;hachureGap=4;fontFamily=Architects Daughter;fontSource=https%3A%2F%2Ffonts.googleapis.com%2Fcss%3Ffamily%3DArchitects%2BDaughter;fontSize=20;fillColor=#1ba1e2;strokeColor=#006EAF;fontColor=#000000;" parent="yOwxqxkXujApihUdTshh-53" vertex="1">
          <mxGeometry x="538.4226519337017" width="215.57734806629836" height="56.30992736077483" as="geometry" />
        </mxCell>
        <mxCell id="yOwxqxkXujApihUdTshh-47" value="rocketMq" style="rounded=0;whiteSpace=wrap;html=1;sketch=1;hachureGap=4;fontFamily=Architects Daughter;fontSource=https%3A%2F%2Ffonts.googleapis.com%2Fcss%3Ffamily%3DArchitects%2BDaughter;fontSize=20;fillColor=#1ba1e2;strokeColor=#006EAF;fontColor=#000000;" parent="yOwxqxkXujApihUdTshh-53" vertex="1">
          <mxGeometry y="90.53753026634384" width="215.57734806629836" height="56.30992736077483" as="geometry" />
        </mxCell>
        <mxCell id="yOwxqxkXujApihUdTshh-48" value="ActiveMq" style="rounded=0;whiteSpace=wrap;html=1;sketch=1;hachureGap=4;fontFamily=Architects Daughter;fontSource=https%3A%2F%2Ffonts.googleapis.com%2Fcss%3Ffamily%3DArchitects%2BDaughter;fontSize=20;fillColor=#1ba1e2;strokeColor=#006EAF;fontColor=#000000;" parent="yOwxqxkXujApihUdTshh-53" vertex="1">
          <mxGeometry x="268.69060773480663" y="87.22518159806296" width="215.57734806629836" height="56.30992736077483" as="geometry" />
        </mxCell>
        <mxCell id="yOwxqxkXujApihUdTshh-49" value="Redis" style="rounded=0;whiteSpace=wrap;html=1;sketch=1;hachureGap=4;fontFamily=Architects Daughter;fontSource=https%3A%2F%2Ffonts.googleapis.com%2Fcss%3Ffamily%3DArchitects%2BDaughter;fontSize=20;fillColor=#1ba1e2;strokeColor=#006EAF;fontColor=#000000;" parent="yOwxqxkXujApihUdTshh-53" vertex="1">
          <mxGeometry x="538.4226519337017" y="87.22518159806296" width="215.57734806629836" height="56.30992736077483" as="geometry" />
        </mxCell>
        <mxCell id="yOwxqxkXujApihUdTshh-50" value="流程引擎" style="rounded=0;whiteSpace=wrap;html=1;sketch=1;hachureGap=4;fontFamily=Architects Daughter;fontSource=https%3A%2F%2Ffonts.googleapis.com%2Fcss%3Ffamily%3DArchitects%2BDaughter;fontSize=20;fillColor=#1ba1e2;strokeColor=#006EAF;fontColor=#000000;" parent="yOwxqxkXujApihUdTshh-53" vertex="1">
          <mxGeometry y="171.6900726392252" width="215.57734806629836" height="56.30992736077483" as="geometry" />
        </mxCell>
        <mxCell id="yOwxqxkXujApihUdTshh-51" value="ES" style="rounded=0;whiteSpace=wrap;html=1;sketch=1;hachureGap=4;fontFamily=Architects Daughter;fontSource=https%3A%2F%2Ffonts.googleapis.com%2Fcss%3Ffamily%3DArchitects%2BDaughter;fontSize=20;fillColor=#1ba1e2;strokeColor=#006EAF;fontColor=#000000;" parent="yOwxqxkXujApihUdTshh-53" vertex="1">
          <mxGeometry x="268.69060773480663" y="171.6900726392252" width="215.57734806629836" height="56.30992736077483" as="geometry" />
        </mxCell>
        <mxCell id="yOwxqxkXujApihUdTshh-52" value="PostGreSql" style="rounded=0;whiteSpace=wrap;html=1;sketch=1;hachureGap=4;fontFamily=Architects Daughter;fontSource=https%3A%2F%2Ffonts.googleapis.com%2Fcss%3Ffamily%3DArchitects%2BDaughter;fontSize=20;fillColor=#1ba1e2;strokeColor=#006EAF;fontColor=#000000;" parent="yOwxqxkXujApihUdTshh-53" vertex="1">
          <mxGeometry x="538.4226519337017" y="171.6900726392252" width="215.57734806629836" height="56.30992736077483" as="geometry" />
        </mxCell>
        <mxCell id="yOwxqxkXujApihUdTshh-76" value="" style="rounded=0;whiteSpace=wrap;html=1;sketch=1;hachureGap=4;fontFamily=Architects Daughter;fontSource=https%3A%2F%2Ffonts.googleapis.com%2Fcss%3Ffamily%3DArchitects%2BDaughter;fontSize=20;strokeColor=#10739e;fillColor=#b1ddf0;" parent="1" vertex="1">
          <mxGeometry x="-807" y="-419" width="1640" height="355" as="geometry" />
        </mxCell>
        <mxCell id="yOwxqxkXujApihUdTshh-95" value="" style="group" parent="1" vertex="1" connectable="0">
          <mxGeometry x="-201" y="-306" width="418" height="224" as="geometry" />
        </mxCell>
        <mxCell id="yOwxqxkXujApihUdTshh-77" value="" style="rounded=0;whiteSpace=wrap;html=1;sketch=1;hachureGap=4;fontFamily=Architects Daughter;fontSource=https%3A%2F%2Ffonts.googleapis.com%2Fcss%3Ffamily%3DArchitects%2BDaughter;fontSize=20;fontColor=#000000;strokeColor=default;" parent="yOwxqxkXujApihUdTshh-95" vertex="1">
          <mxGeometry width="418" height="224" as="geometry" />
        </mxCell>
        <mxCell id="yOwxqxkXujApihUdTshh-84" value="省级数据汇聚" style="rounded=0;whiteSpace=wrap;html=1;sketch=1;hachureGap=4;fontFamily=Architects Daughter;fontSource=https%3A%2F%2Ffonts.googleapis.com%2Fcss%3Ffamily%3DArchitects%2BDaughter;fontSize=20;fillColor=#1ba1e2;strokeColor=#006EAF;fontColor=#000000;" parent="yOwxqxkXujApihUdTshh-95" vertex="1">
          <mxGeometry x="23" y="58" width="368" height="70" as="geometry" />
        </mxCell>
        <mxCell id="yOwxqxkXujApihUdTshh-85" value="市级数据汇聚" style="rounded=0;whiteSpace=wrap;html=1;sketch=1;hachureGap=4;fontFamily=Architects Daughter;fontSource=https%3A%2F%2Ffonts.googleapis.com%2Fcss%3Ffamily%3DArchitects%2BDaughter;fontSize=20;fillColor=#1ba1e2;strokeColor=#006EAF;fontColor=#000000;" parent="yOwxqxkXujApihUdTshh-95" vertex="1">
          <mxGeometry x="23" y="142" width="368" height="70" as="geometry" />
        </mxCell>
        <mxCell id="yOwxqxkXujApihUdTshh-86" value="数据汇聚" style="text;html=1;strokeColor=none;fillColor=none;align=center;verticalAlign=middle;whiteSpace=wrap;rounded=0;sketch=1;hachureGap=4;fontFamily=Architects Daughter;fontSource=https%3A%2F%2Ffonts.googleapis.com%2Fcss%3Ffamily%3DArchitects%2BDaughter;fontSize=25;fontColor=#000000;" parent="yOwxqxkXujApihUdTshh-95" vertex="1">
          <mxGeometry x="163" y="14.5" width="113" height="28" as="geometry" />
        </mxCell>
        <mxCell id="yOwxqxkXujApihUdTshh-96" value="" style="group" parent="1" vertex="1" connectable="0">
          <mxGeometry x="312" y="-302" width="494" height="224" as="geometry" />
        </mxCell>
        <mxCell id="yOwxqxkXujApihUdTshh-88" value="" style="rounded=0;whiteSpace=wrap;html=1;sketch=1;hachureGap=4;fontFamily=Architects Daughter;fontSource=https%3A%2F%2Ffonts.googleapis.com%2Fcss%3Ffamily%3DArchitects%2BDaughter;fontSize=20;fontColor=#000000;strokeColor=default;" parent="yOwxqxkXujApihUdTshh-96" vertex="1">
          <mxGeometry width="494" height="224" as="geometry" />
        </mxCell>
        <mxCell id="yOwxqxkXujApihUdTshh-89" value="质量管理" style="rounded=0;whiteSpace=wrap;html=1;sketch=1;hachureGap=4;fontFamily=Architects Daughter;fontSource=https%3A%2F%2Ffonts.googleapis.com%2Fcss%3Ffamily%3DArchitects%2BDaughter;fontSize=20;fillColor=#bac8d3;strokeColor=#23445d;" parent="yOwxqxkXujApihUdTshh-96" vertex="1">
          <mxGeometry x="14" y="52" width="210" height="70" as="geometry" />
        </mxCell>
        <mxCell id="yOwxqxkXujApihUdTshh-90" value="模型管理" style="rounded=0;whiteSpace=wrap;html=1;sketch=1;hachureGap=4;fontFamily=Architects Daughter;fontSource=https%3A%2F%2Ffonts.googleapis.com%2Fcss%3Ffamily%3DArchitects%2BDaughter;fontSize=20;fillColor=#60a917;strokeColor=#2D7600;fontColor=#000000;" parent="yOwxqxkXujApihUdTshh-96" vertex="1">
          <mxGeometry x="260" y="52" width="210" height="70" as="geometry" />
        </mxCell>
        <mxCell id="yOwxqxkXujApihUdTshh-91" value="标签管理" style="rounded=0;whiteSpace=wrap;html=1;sketch=1;hachureGap=4;fontFamily=Architects Daughter;fontSource=https%3A%2F%2Ffonts.googleapis.com%2Fcss%3Ffamily%3DArchitects%2BDaughter;fontSize=20;fillColor=#60a917;strokeColor=#2D7600;fontColor=#000000;" parent="yOwxqxkXujApihUdTshh-96" vertex="1">
          <mxGeometry x="14" y="140" width="210" height="70" as="geometry" />
        </mxCell>
        <mxCell id="yOwxqxkXujApihUdTshh-92" value="资源目录" style="rounded=0;whiteSpace=wrap;html=1;sketch=1;hachureGap=4;fontFamily=Architects Daughter;fontSource=https%3A%2F%2Ffonts.googleapis.com%2Fcss%3Ffamily%3DArchitects%2BDaughter;fontSize=20;fillColor=#bac8d3;strokeColor=#23445d;" parent="yOwxqxkXujApihUdTshh-96" vertex="1">
          <mxGeometry x="262" y="140" width="210" height="70" as="geometry" />
        </mxCell>
        <mxCell id="yOwxqxkXujApihUdTshh-93" value="&lt;font style=&quot;font-size: 25px;&quot;&gt;数据治理&lt;/font&gt;" style="text;html=1;strokeColor=none;fillColor=none;align=center;verticalAlign=middle;whiteSpace=wrap;rounded=0;sketch=1;hachureGap=4;fontFamily=Architects Daughter;fontSource=https%3A%2F%2Ffonts.googleapis.com%2Fcss%3Ffamily%3DArchitects%2BDaughter;fontSize=20;fontColor=#000000;" parent="yOwxqxkXujApihUdTshh-96" vertex="1">
          <mxGeometry x="181" y="10.5" width="113" height="28" as="geometry" />
        </mxCell>
        <mxCell id="yOwxqxkXujApihUdTshh-97" value="" style="group" parent="1" vertex="1" connectable="0">
          <mxGeometry x="-790" y="-306" width="494" height="224" as="geometry" />
        </mxCell>
        <mxCell id="yOwxqxkXujApihUdTshh-78" value="" style="rounded=0;whiteSpace=wrap;html=1;sketch=1;hachureGap=4;fontFamily=Architects Daughter;fontSource=https%3A%2F%2Ffonts.googleapis.com%2Fcss%3Ffamily%3DArchitects%2BDaughter;fontSize=20;fontColor=#000000;strokeColor=default;" parent="yOwxqxkXujApihUdTshh-97" vertex="1">
          <mxGeometry width="494" height="224" as="geometry" />
        </mxCell>
        <mxCell id="yOwxqxkXujApihUdTshh-79" value="警情事件" style="rounded=0;whiteSpace=wrap;html=1;sketch=1;hachureGap=4;fontFamily=Architects Daughter;fontSource=https%3A%2F%2Ffonts.googleapis.com%2Fcss%3Ffamily%3DArchitects%2BDaughter;fontSize=20;fillColor=#1ba1e2;strokeColor=#006EAF;fontColor=#000000;" parent="yOwxqxkXujApihUdTshh-97" vertex="1">
          <mxGeometry x="14" y="52" width="210" height="70" as="geometry" />
        </mxCell>
        <mxCell id="yOwxqxkXujApihUdTshh-80" value="回访数据" style="rounded=0;whiteSpace=wrap;html=1;sketch=1;hachureGap=4;fontFamily=Architects Daughter;fontSource=https%3A%2F%2Ffonts.googleapis.com%2Fcss%3Ffamily%3DArchitects%2BDaughter;fontSize=20;fillColor=#1ba1e2;strokeColor=#006EAF;fontColor=#000000;" parent="yOwxqxkXujApihUdTshh-97" vertex="1">
          <mxGeometry x="260" y="52" width="210" height="70" as="geometry" />
        </mxCell>
        <mxCell id="yOwxqxkXujApihUdTshh-81" value="情报数据" style="rounded=0;whiteSpace=wrap;html=1;sketch=1;hachureGap=4;fontFamily=Architects Daughter;fontSource=https%3A%2F%2Ffonts.googleapis.com%2Fcss%3Ffamily%3DArchitects%2BDaughter;fontSize=20;fillColor=#1ba1e2;strokeColor=#006EAF;fontColor=#000000;" parent="yOwxqxkXujApihUdTshh-97" vertex="1">
          <mxGeometry x="14" y="140" width="210" height="70" as="geometry" />
        </mxCell>
        <mxCell id="yOwxqxkXujApihUdTshh-82" value="勤务数据" style="rounded=0;whiteSpace=wrap;html=1;sketch=1;hachureGap=4;fontFamily=Architects Daughter;fontSource=https%3A%2F%2Ffonts.googleapis.com%2Fcss%3Ffamily%3DArchitects%2BDaughter;fontSize=20;fillColor=#1ba1e2;strokeColor=#006EAF;fontColor=#000000;" parent="yOwxqxkXujApihUdTshh-97" vertex="1">
          <mxGeometry x="262" y="140" width="210" height="70" as="geometry" />
        </mxCell>
        <mxCell id="yOwxqxkXujApihUdTshh-83" value="数据生产" style="text;html=1;strokeColor=none;fillColor=none;align=center;verticalAlign=middle;whiteSpace=wrap;rounded=0;sketch=1;hachureGap=4;fontFamily=Architects Daughter;fontSource=https%3A%2F%2Ffonts.googleapis.com%2Fcss%3Ffamily%3DArchitects%2BDaughter;fontSize=25;fontColor=#000000;" parent="yOwxqxkXujApihUdTshh-97" vertex="1">
          <mxGeometry x="181" y="10.5" width="113" height="28" as="geometry" />
        </mxCell>
        <mxCell id="yOwxqxkXujApihUdTshh-110" value="" style="rounded=0;whiteSpace=wrap;html=1;sketch=1;hachureGap=4;fontFamily=Architects Daughter;fontSource=https%3A%2F%2Ffonts.googleapis.com%2Fcss%3Ffamily%3DArchitects%2BDaughter;fontSize=25;" parent="1" vertex="1">
          <mxGeometry x="-792.5" y="290" width="1608" height="196" as="geometry" />
        </mxCell>
        <mxCell id="yOwxqxkXujApihUdTshh-111" value="&lt;font style=&quot;font-size: 25px;&quot;&gt;KUbernetes/portainer + shell&lt;/font&gt;" style="rounded=0;whiteSpace=wrap;html=1;sketch=1;hachureGap=4;fontFamily=Architects Daughter;fontSource=https://fonts.googleapis.com/css?family=Architects+Daughter;fontSize=20;fillColor=#bac8d3;strokeColor=#23445d;" parent="1" vertex="1">
          <mxGeometry x="-785.5" y="418" width="1591" height="51" as="geometry" />
        </mxCell>
        <mxCell id="yOwxqxkXujApihUdTshh-112" value="API服务" style="rounded=0;whiteSpace=wrap;html=1;sketch=1;hachureGap=4;fontFamily=Architects Daughter;fontSource=https://fonts.googleapis.com/css?family=Architects+Daughter;fontSize=20;fillColor=#bac8d3;strokeColor=#23445d;" parent="1" vertex="1">
          <mxGeometry x="-785.5" y="329" width="210" height="70" as="geometry" />
        </mxCell>
        <mxCell id="yOwxqxkXujApihUdTshh-113" value="容器编排" style="rounded=0;whiteSpace=wrap;html=1;sketch=1;hachureGap=4;fontFamily=Architects Daughter;fontSource=https://fonts.googleapis.com/css?family=Architects+Daughter;fontSize=20;fillColor=#bac8d3;strokeColor=#23445d;" parent="1" vertex="1">
          <mxGeometry x="-555.5" y="331" width="210" height="70" as="geometry" />
        </mxCell>
        <mxCell id="yOwxqxkXujApihUdTshh-114" value="服务管理" style="rounded=0;whiteSpace=wrap;html=1;sketch=1;hachureGap=4;fontFamily=Architects Daughter;fontSource=https://fonts.googleapis.com/css?family=Architects+Daughter;fontSize=20;fillColor=#bac8d3;strokeColor=#23445d;" parent="1" vertex="1">
          <mxGeometry x="-325.5" y="331" width="210" height="70" as="geometry" />
        </mxCell>
        <mxCell id="yOwxqxkXujApihUdTshh-115" value="监控报警" style="rounded=0;whiteSpace=wrap;html=1;sketch=1;hachureGap=4;fontFamily=Architects Daughter;fontSource=https://fonts.googleapis.com/css?family=Architects+Daughter;fontSize=20;fillColor=#bac8d3;strokeColor=#23445d;" parent="1" vertex="1">
          <mxGeometry x="-95.5" y="331" width="210" height="70" as="geometry" />
        </mxCell>
        <mxCell id="yOwxqxkXujApihUdTshh-116" value="日志服务" style="rounded=0;whiteSpace=wrap;html=1;sketch=1;hachureGap=4;fontFamily=Architects Daughter;fontSource=https://fonts.googleapis.com/css?family=Architects+Daughter;fontSize=20;fillColor=#bac8d3;strokeColor=#23445d;" parent="1" vertex="1">
          <mxGeometry x="135.5" y="331" width="210" height="70" as="geometry" />
        </mxCell>
        <mxCell id="yOwxqxkXujApihUdTshh-117" value="弹性服务" style="rounded=0;whiteSpace=wrap;html=1;sketch=1;hachureGap=4;fontFamily=Architects Daughter;fontSource=https://fonts.googleapis.com/css?family=Architects+Daughter;fontSize=20;fillColor=#bac8d3;strokeColor=#23445d;" parent="1" vertex="1">
          <mxGeometry x="365.5" y="331" width="210" height="70" as="geometry" />
        </mxCell>
        <mxCell id="yOwxqxkXujApihUdTshh-118" value="安全服务" style="rounded=0;whiteSpace=wrap;html=1;sketch=1;hachureGap=4;fontFamily=Architects Daughter;fontSource=https://fonts.googleapis.com/css?family=Architects+Daughter;fontSize=20;fillColor=#bac8d3;strokeColor=#23445d;" parent="1" vertex="1">
          <mxGeometry x="595.5" y="331" width="210" height="70" as="geometry" />
        </mxCell>
        <mxCell id="yOwxqxkXujApihUdTshh-119" value="容器管理平台" style="text;html=1;strokeColor=none;fillColor=none;align=center;verticalAlign=middle;whiteSpace=wrap;rounded=0;sketch=1;hachureGap=4;fontFamily=Architects Daughter;fontSource=https://fonts.googleapis.com/css?family=Architects+Daughter;fontSize=25;fontColor=#000000;" parent="1" vertex="1">
          <mxGeometry x="-111.5" y="294" width="263" height="30" as="geometry" />
        </mxCell>
        <mxCell id="yOwxqxkXujApihUdTshh-121" value="" style="group" parent="1" vertex="1" connectable="0">
          <mxGeometry x="-783.5" y="540" width="210" height="70" as="geometry" />
        </mxCell>
        <mxCell id="yOwxqxkXujApihUdTshh-120" value="" style="rounded=0;whiteSpace=wrap;html=1;sketch=1;hachureGap=4;fontFamily=Architects Daughter;fontSource=https%3A%2F%2Ffonts.googleapis.com%2Fcss%3Ffamily%3DArchitects%2BDaughter;fontSize=20;" parent="yOwxqxkXujApihUdTshh-121" vertex="1">
          <mxGeometry width="210" height="70" as="geometry" />
        </mxCell>
        <mxCell id="yOwxqxkXujApihUdTshh-12" value="计算服务" style="rounded=0;whiteSpace=wrap;html=1;sketch=1;hachureGap=4;fontFamily=Architects Daughter;fontSource=https%3A%2F%2Ffonts.googleapis.com%2Fcss%3Ffamily%3DArchitects%2BDaughter;fontSize=20;fillColor=#bac8d3;strokeColor=#23445d;" parent="yOwxqxkXujApihUdTshh-121" vertex="1">
          <mxGeometry width="210" height="70" as="geometry" />
        </mxCell>
        <mxCell id="yOwxqxkXujApihUdTshh-122" value="" style="group" parent="1" vertex="1" connectable="0">
          <mxGeometry x="-320" y="541" width="210" height="70" as="geometry" />
        </mxCell>
        <mxCell id="yOwxqxkXujApihUdTshh-123" value="" style="rounded=0;whiteSpace=wrap;html=1;sketch=1;hachureGap=4;fontFamily=Architects Daughter;fontSource=https%3A%2F%2Ffonts.googleapis.com%2Fcss%3Ffamily%3DArchitects%2BDaughter;fontSize=20;" parent="yOwxqxkXujApihUdTshh-122" vertex="1">
          <mxGeometry width="210" height="70" as="geometry" />
        </mxCell>
        <mxCell id="yOwxqxkXujApihUdTshh-124" value="网络服务" style="rounded=0;whiteSpace=wrap;html=1;sketch=1;hachureGap=4;fontFamily=Architects Daughter;fontSource=https%3A%2F%2Ffonts.googleapis.com%2Fcss%3Ffamily%3DArchitects%2BDaughter;fontSize=20;fillColor=#bac8d3;strokeColor=#23445d;" parent="yOwxqxkXujApihUdTshh-122" vertex="1">
          <mxGeometry width="210" height="70" as="geometry" />
        </mxCell>
        <mxCell id="yOwxqxkXujApihUdTshh-125" value="" style="group" parent="1" vertex="1" connectable="0">
          <mxGeometry x="143" y="541" width="210" height="70" as="geometry" />
        </mxCell>
        <mxCell id="yOwxqxkXujApihUdTshh-126" value="" style="rounded=0;whiteSpace=wrap;html=1;sketch=1;hachureGap=4;fontFamily=Architects Daughter;fontSource=https%3A%2F%2Ffonts.googleapis.com%2Fcss%3Ffamily%3DArchitects%2BDaughter;fontSize=20;" parent="yOwxqxkXujApihUdTshh-125" vertex="1">
          <mxGeometry width="210" height="70" as="geometry" />
        </mxCell>
        <mxCell id="yOwxqxkXujApihUdTshh-127" value="存储服务" style="rounded=0;whiteSpace=wrap;html=1;sketch=1;hachureGap=4;fontFamily=Architects Daughter;fontSource=https%3A%2F%2Ffonts.googleapis.com%2Fcss%3Ffamily%3DArchitects%2BDaughter;fontSize=20;fillColor=#bac8d3;strokeColor=#23445d;" parent="yOwxqxkXujApihUdTshh-125" vertex="1">
          <mxGeometry width="210" height="70" as="geometry" />
        </mxCell>
        <mxCell id="yOwxqxkXujApihUdTshh-128" value="" style="group" parent="1" vertex="1" connectable="0">
          <mxGeometry x="605.5" y="542" width="210" height="70" as="geometry" />
        </mxCell>
        <mxCell id="yOwxqxkXujApihUdTshh-129" value="" style="rounded=0;whiteSpace=wrap;html=1;sketch=1;hachureGap=4;fontFamily=Architects Daughter;fontSource=https%3A%2F%2Ffonts.googleapis.com%2Fcss%3Ffamily%3DArchitects%2BDaughter;fontSize=20;" parent="yOwxqxkXujApihUdTshh-128" vertex="1">
          <mxGeometry width="210" height="70" as="geometry" />
        </mxCell>
        <mxCell id="yOwxqxkXujApihUdTshh-130" value="容器服务" style="rounded=0;whiteSpace=wrap;html=1;sketch=1;hachureGap=4;fontFamily=Architects Daughter;fontSource=https%3A%2F%2Ffonts.googleapis.com%2Fcss%3Ffamily%3DArchitects%2BDaughter;fontSize=20;fillColor=#bac8d3;strokeColor=#23445d;" parent="yOwxqxkXujApihUdTshh-128" vertex="1">
          <mxGeometry width="210" height="70" as="geometry" />
        </mxCell>
        <mxCell id="yOwxqxkXujApihUdTshh-131" value="" style="group" parent="1" vertex="1" connectable="0">
          <mxGeometry x="-785" y="631" width="1608" height="70" as="geometry" />
        </mxCell>
        <mxCell id="yOwxqxkXujApihUdTshh-132" value="" style="rounded=0;whiteSpace=wrap;html=1;sketch=1;hachureGap=4;fontFamily=Architects Daughter;fontSource=https%3A%2F%2Ffonts.googleapis.com%2Fcss%3Ffamily%3DArchitects%2BDaughter;fontSize=20;" parent="yOwxqxkXujApihUdTshh-131" vertex="1">
          <mxGeometry width="1608" height="70" as="geometry" />
        </mxCell>
        <mxCell id="yOwxqxkXujApihUdTshh-133" value="基础资源" style="rounded=0;whiteSpace=wrap;html=1;sketch=1;hachureGap=4;fontFamily=Architects Daughter;fontSource=https%3A%2F%2Ffonts.googleapis.com%2Fcss%3Ffamily%3DArchitects%2BDaughter;fontSize=20;fillColor=#bac8d3;strokeColor=#23445d;" parent="yOwxqxkXujApihUdTshh-131" vertex="1">
          <mxGeometry width="1608" height="70" as="geometry" />
        </mxCell>
        <mxCell id="uAcvavNCiAYMZfsBuxs1-12" value="" style="group" vertex="1" connectable="0" parent="1">
          <mxGeometry x="859" y="-1007" width="341" height="1719" as="geometry" />
        </mxCell>
        <mxCell id="yOwxqxkXujApihUdTshh-75" value="" style="rounded=0;whiteSpace=wrap;html=1;sketch=1;hachureGap=4;fontFamily=Architects Daughter;fontSource=https%3A%2F%2Ffonts.googleapis.com%2Fcss%3Ffamily%3DArchitects%2BDaughter;fontSize=20;strokeColor=#10739e;fillColor=#b1ddf0;" parent="uAcvavNCiAYMZfsBuxs1-12" vertex="1">
          <mxGeometry width="341" height="1719" as="geometry" />
        </mxCell>
        <mxCell id="yOwxqxkXujApihUdTshh-136" value="" style="group" parent="uAcvavNCiAYMZfsBuxs1-12" vertex="1" connectable="0">
          <mxGeometry x="13.115384615384615" y="1231.7451481103167" width="309.3044871794871" height="471.4519918283964" as="geometry" />
        </mxCell>
        <mxCell id="yOwxqxkXujApihUdTshh-54" value="" style="rounded=0;whiteSpace=wrap;html=1;sketch=1;hachureGap=4;fontFamily=Architects Daughter;fontSource=https%3A%2F%2Ffonts.googleapis.com%2Fcss%3Ffamily%3DArchitects%2BDaughter;fontSize=20;fontColor=#000000;" parent="yOwxqxkXujApihUdTshh-136" vertex="1">
          <mxGeometry x="16.45980769230763" width="288.4728846153846" height="471.4519918283964" as="geometry" />
        </mxCell>
        <mxCell id="yOwxqxkXujApihUdTshh-55" value="安全规范" style="rounded=0;whiteSpace=wrap;html=1;sketch=1;hachureGap=4;fontFamily=Architects Daughter;fontSource=https%3A%2F%2Ffonts.googleapis.com%2Fcss%3Ffamily%3DArchitects%2BDaughter;fontSize=20;fillColor=#bac8d3;strokeColor=#23445d;" parent="yOwxqxkXujApihUdTshh-136" vertex="1">
          <mxGeometry x="40.43910256410256" y="380.9964208375894" width="246.9731646680316" height="78.17148110316651" as="geometry" />
        </mxCell>
        <mxCell id="yOwxqxkXujApihUdTshh-56" value="协调标准" style="rounded=0;whiteSpace=wrap;html=1;sketch=1;hachureGap=4;fontFamily=Architects Daughter;fontSource=https%3A%2F%2Ffonts.googleapis.com%2Fcss%3Ffamily%3DArchitects%2BDaughter;fontSize=20;fillColor=#1ba1e2;strokeColor=#006EAF;fontColor=#000000;" parent="yOwxqxkXujApihUdTshh-136" vertex="1">
          <mxGeometry x="42.32720264209808" y="272.1603677221655" width="246.9731646680316" height="78.17148110316651" as="geometry" />
        </mxCell>
        <mxCell id="yOwxqxkXujApihUdTshh-57" value="业务标准" style="rounded=0;whiteSpace=wrap;html=1;sketch=1;hachureGap=4;fontFamily=Architects Daughter;fontSource=https%3A%2F%2Ffonts.googleapis.com%2Fcss%3Ffamily%3DArchitects%2BDaughter;fontSize=20;fillColor=#1ba1e2;strokeColor=#006EAF;fontColor=#000000;" parent="yOwxqxkXujApihUdTshh-136" vertex="1">
          <mxGeometry x="37.21220264209814" y="164.1741573033708" width="246.9731646680316" height="78.17148110316651" as="geometry" />
        </mxCell>
        <mxCell id="yOwxqxkXujApihUdTshh-58" value="数据标准" style="rounded=0;whiteSpace=wrap;html=1;sketch=1;hachureGap=4;fontFamily=Architects Daughter;fontSource=https%3A%2F%2Ffonts.googleapis.com%2Fcss%3Ffamily%3DArchitects%2BDaughter;fontSize=20;fillColor=#1ba1e2;strokeColor=#006EAF;fontColor=#000000;" parent="yOwxqxkXujApihUdTshh-136" vertex="1">
          <mxGeometry x="39.34615384615385" y="55.3064984678243" width="246.9731646680316" height="78.17148110316651" as="geometry" />
        </mxCell>
        <mxCell id="yOwxqxkXujApihUdTshh-59" value="标准规范" style="text;html=1;strokeColor=none;fillColor=none;align=center;verticalAlign=middle;whiteSpace=wrap;rounded=0;sketch=1;hachureGap=4;fontFamily=Architects Daughter;fontSource=https%3A%2F%2Ffonts.googleapis.com%2Fcss%3Ffamily%3DArchitects%2BDaughter;fontSize=25;fontColor=#000000;" parent="yOwxqxkXujApihUdTshh-136" vertex="1">
          <mxGeometry y="11.413176710929521" width="309.3044871794871" height="33.502063329928504" as="geometry" />
        </mxCell>
        <mxCell id="yOwxqxkXujApihUdTshh-137" value="" style="group" parent="uAcvavNCiAYMZfsBuxs1-12" vertex="1" connectable="0">
          <mxGeometry x="21.858974358974358" y="579.438202247191" width="294.0032051282051" height="620.7012257405516" as="geometry" />
        </mxCell>
        <mxCell id="yOwxqxkXujApihUdTshh-62" value="" style="rounded=0;whiteSpace=wrap;html=1;sketch=1;hachureGap=4;fontFamily=Architects Daughter;fontSource=https%3A%2F%2Ffonts.googleapis.com%2Fcss%3Ffamily%3DArchitects%2BDaughter;fontSize=20;fontColor=#000000;" parent="yOwxqxkXujApihUdTshh-137" vertex="1">
          <mxGeometry x="13.46512820512826" width="278.35217948717946" height="620.7012257405516" as="geometry" />
        </mxCell>
        <mxCell id="yOwxqxkXujApihUdTshh-63" value="故障处理" style="rounded=0;whiteSpace=wrap;html=1;sketch=1;hachureGap=4;fontFamily=Architects Daughter;fontSource=https%3A%2F%2Ffonts.googleapis.com%2Fcss%3Ffamily%3DArchitects%2BDaughter;fontSize=20;fillColor=#1ba1e2;strokeColor=#006EAF;fontColor=#000000;" parent="yOwxqxkXujApihUdTshh-137" vertex="1">
          <mxGeometry x="33.881410256410255" y="409.1184882533198" width="234.75541093887097" height="73.9105617977528" as="geometry" />
        </mxCell>
        <mxCell id="yOwxqxkXujApihUdTshh-64" value="监控报警" style="rounded=0;whiteSpace=wrap;html=1;sketch=1;hachureGap=4;fontFamily=Architects Daughter;fontSource=https%3A%2F%2Ffonts.googleapis.com%2Fcss%3Ffamily%3DArchitects%2BDaughter;fontSize=20;fillColor=#1ba1e2;strokeColor=#006EAF;fontColor=#000000;" parent="yOwxqxkXujApihUdTshh-137" vertex="1">
          <mxGeometry x="34.97435897435898" y="295.86465781409606" width="234.75541093887097" height="73.9105617977528" as="geometry" />
        </mxCell>
        <mxCell id="yOwxqxkXujApihUdTshh-65" value="构建发布" style="rounded=0;whiteSpace=wrap;html=1;sketch=1;hachureGap=4;fontFamily=Architects Daughter;fontSource=https%3A%2F%2Ffonts.googleapis.com%2Fcss%3Ffamily%3DArchitects%2BDaughter;fontSize=20;fillColor=#1ba1e2;strokeColor=#006EAF;fontColor=#000000;" parent="yOwxqxkXujApihUdTshh-137" vertex="1">
          <mxGeometry x="33.87513515160382" y="183.48876404494385" width="234.75541093887097" height="73.9105617977528" as="geometry" />
        </mxCell>
        <mxCell id="yOwxqxkXujApihUdTshh-66" value="系统部署" style="rounded=0;whiteSpace=wrap;html=1;sketch=1;hachureGap=4;fontFamily=Architects Daughter;fontSource=https%3A%2F%2Ffonts.googleapis.com%2Fcss%3Ffamily%3DArchitects%2BDaughter;fontSize=20;fillColor=#1ba1e2;strokeColor=#006EAF;fontColor=#000000;" parent="yOwxqxkXujApihUdTshh-137" vertex="1">
          <mxGeometry x="34.97435897435898" y="70.06929622063332" width="234.75541093887097" height="73.9105617977528" as="geometry" />
        </mxCell>
        <mxCell id="yOwxqxkXujApihUdTshh-67" value="&lt;font style=&quot;font-size: 25px;&quot;&gt;运维管理&lt;/font&gt;" style="text;html=1;strokeColor=none;fillColor=none;align=center;verticalAlign=middle;whiteSpace=wrap;rounded=0;sketch=1;hachureGap=4;fontFamily=Architects Daughter;fontSource=https%3A%2F%2Ffonts.googleapis.com%2Fcss%3Ffamily%3DArchitects%2BDaughter;fontSize=20;fontColor=#000000;" parent="yOwxqxkXujApihUdTshh-137" vertex="1">
          <mxGeometry y="10.532313585291119" width="294.0032051282051" height="31.675955056179788" as="geometry" />
        </mxCell>
        <mxCell id="yOwxqxkXujApihUdTshh-107" value="配置管理" style="rounded=0;whiteSpace=wrap;html=1;sketch=1;hachureGap=4;fontFamily=Architects Daughter;fontSource=https%3A%2F%2Ffonts.googleapis.com%2Fcss%3Ffamily%3DArchitects%2BDaughter;fontSize=20;fillColor=#1ba1e2;strokeColor=#006EAF;fontColor=#000000;" parent="yOwxqxkXujApihUdTshh-137" vertex="1">
          <mxGeometry x="35.263180023398675" y="522.3758304392237" width="234.75541093887097" height="73.9105617977528" as="geometry" />
        </mxCell>
        <mxCell id="yOwxqxkXujApihUdTshh-138" value="" style="group" parent="uAcvavNCiAYMZfsBuxs1-12" vertex="1" connectable="0">
          <mxGeometry x="19.673076923076923" y="24.582226762002044" width="302.74679487179486" height="513.5929519918284" as="geometry" />
        </mxCell>
        <mxCell id="yOwxqxkXujApihUdTshh-69" value="" style="rounded=0;whiteSpace=wrap;html=1;sketch=1;hachureGap=4;fontFamily=Architects Daughter;fontSource=https%3A%2F%2Ffonts.googleapis.com%2Fcss%3Ffamily%3DArchitects%2BDaughter;fontSize=20;fontColor=#000000;" parent="yOwxqxkXujApihUdTshh-138" vertex="1">
          <mxGeometry x="15.771249999999943" width="286.9755448717948" height="513.5929519918284" as="geometry" />
        </mxCell>
        <mxCell id="yOwxqxkXujApihUdTshh-70" value="数据安全" style="rounded=0;whiteSpace=wrap;html=1;sketch=1;hachureGap=4;fontFamily=Architects Daughter;fontSource=https%3A%2F%2Ffonts.googleapis.com%2Fcss%3Ffamily%3DArchitects%2BDaughter;fontSize=20;fillColor=#1ba1e2;strokeColor=#006EAF;fontColor=#000000;" parent="yOwxqxkXujApihUdTshh-138" vertex="1">
          <mxGeometry x="37.160256410256416" y="417.0216741573033" width="236.50080432875106" height="75.87713993871296" as="geometry" />
        </mxCell>
        <mxCell id="yOwxqxkXujApihUdTshh-71" value="环境安全" style="rounded=0;whiteSpace=wrap;html=1;sketch=1;hachureGap=4;fontFamily=Architects Daughter;fontSource=https%3A%2F%2Ffonts.googleapis.com%2Fcss%3Ffamily%3DArchitects%2BDaughter;fontSize=20;fillColor=#bac8d3;strokeColor=#23445d;" parent="yOwxqxkXujApihUdTshh-138" vertex="1">
          <mxGeometry x="36.066227210685426" y="296.74259448416757" width="236.50080432875106" height="75.87713993871296" as="geometry" />
        </mxCell>
        <mxCell id="yOwxqxkXujApihUdTshh-72" value="应用安全" style="rounded=0;whiteSpace=wrap;html=1;sketch=1;hachureGap=4;fontFamily=Architects Daughter;fontSource=https%3A%2F%2Ffonts.googleapis.com%2Fcss%3Ffamily%3DArchitects%2BDaughter;fontSize=20;fillColor=#1ba1e2;strokeColor=#006EAF;fontColor=#000000;" parent="yOwxqxkXujApihUdTshh-138" vertex="1">
          <mxGeometry x="37.727509261967455" y="177.34320735444334" width="236.50080432875106" height="75.87713993871296" as="geometry" />
        </mxCell>
        <mxCell id="yOwxqxkXujApihUdTshh-73" value="网络安全" style="rounded=0;whiteSpace=wrap;html=1;sketch=1;hachureGap=4;fontFamily=Architects Daughter;fontSource=https%3A%2F%2Ffonts.googleapis.com%2Fcss%3Ffamily%3DArchitects%2BDaughter;fontSize=20;fillColor=#bac8d3;strokeColor=#23445d;" parent="yOwxqxkXujApihUdTshh-138" vertex="1">
          <mxGeometry x="37.160256410256416" y="57.4498345250255" width="236.50080432875106" height="75.87713993871296" as="geometry" />
        </mxCell>
        <mxCell id="yOwxqxkXujApihUdTshh-74" value="&lt;font style=&quot;font-size: 25px;&quot;&gt;安全管理&lt;/font&gt;" style="text;html=1;strokeColor=none;fillColor=none;align=center;verticalAlign=middle;whiteSpace=wrap;rounded=0;sketch=1;hachureGap=4;fontFamily=Architects Daughter;fontSource=https%3A%2F%2Ffonts.googleapis.com%2Fcss%3Ffamily%3DArchitects%2BDaughter;fontSize=20;fontColor=#000000;" parent="yOwxqxkXujApihUdTshh-138" vertex="1">
          <mxGeometry y="10.83959141981606" width="296.1891025641025" height="32.518774259448406" as="geometry" />
        </mxCell>
        <mxCell id="uAcvavNCiAYMZfsBuxs1-20" value="" style="group" vertex="1" connectable="0" parent="1">
          <mxGeometry x="-787.25" y="-415" width="1597.5" height="103" as="geometry" />
        </mxCell>
        <mxCell id="yOwxqxkXujApihUdTshh-98" value="" style="rounded=0;whiteSpace=wrap;html=1;sketch=1;hachureGap=4;fontFamily=Architects Daughter;fontSource=https%3A%2F%2Ffonts.googleapis.com%2Fcss%3Ffamily%3DArchitects%2BDaughter;fontSize=20;fontColor=#000000;strokeColor=default;" parent="uAcvavNCiAYMZfsBuxs1-20" vertex="1">
          <mxGeometry y="8.455223880597014" width="1597.5" height="86.85820895522389" as="geometry" />
        </mxCell>
        <mxCell id="yOwxqxkXujApihUdTshh-99" value="模型分析" style="rounded=0;whiteSpace=wrap;html=1;sketch=1;hachureGap=4;fontFamily=Architects Daughter;fontSource=https%3A%2F%2Ffonts.googleapis.com%2Fcss%3Ffamily%3DArchitects%2BDaughter;fontSize=20;fillColor=#60a917;strokeColor=#2D7600;fontColor=#000000;" parent="uAcvavNCiAYMZfsBuxs1-20" vertex="1">
          <mxGeometry x="101.83069029850746" y="29.97761194029851" width="355.66231343283584" height="53.80597014925373" as="geometry" />
        </mxCell>
        <mxCell id="yOwxqxkXujApihUdTshh-100" value="比对订阅" style="rounded=0;whiteSpace=wrap;html=1;sketch=1;hachureGap=4;fontFamily=Architects Daughter;fontSource=https%3A%2F%2Ffonts.googleapis.com%2Fcss%3Ffamily%3DArchitects%2BDaughter;fontSize=20;fillColor=#bac8d3;strokeColor=#23445d;" parent="uAcvavNCiAYMZfsBuxs1-20" vertex="1">
          <mxGeometry x="496.2383395522388" y="29.97761194029851" width="340.76026119402985" height="53.80597014925373" as="geometry" />
        </mxCell>
        <mxCell id="yOwxqxkXujApihUdTshh-101" value="查询检索" style="rounded=0;whiteSpace=wrap;html=1;sketch=1;hachureGap=4;fontFamily=Architects Daughter;fontSource=https%3A%2F%2Ffonts.googleapis.com%2Fcss%3Ffamily%3DArchitects%2BDaughter;fontSize=20;fillColor=#60a917;strokeColor=#2D7600;fontColor=#000000;" parent="uAcvavNCiAYMZfsBuxs1-20" vertex="1">
          <mxGeometry x="870.7765858208955" y="29.97761194029851" width="350.6949626865671" height="53.80597014925373" as="geometry" />
        </mxCell>
        <mxCell id="yOwxqxkXujApihUdTshh-102" value="数据推送" style="rounded=0;whiteSpace=wrap;html=1;sketch=1;hachureGap=4;fontFamily=Architects Daughter;fontSource=https%3A%2F%2Ffonts.googleapis.com%2Fcss%3Ffamily%3DArchitects%2BDaughter;fontSize=20;fillColor=#60a917;strokeColor=#2D7600;fontColor=#000000;" parent="uAcvavNCiAYMZfsBuxs1-20" vertex="1">
          <mxGeometry x="1261.2103544776119" y="29.97761194029851" width="320.89085820895525" height="52.26865671641791" as="geometry" />
        </mxCell>
        <mxCell id="yOwxqxkXujApihUdTshh-103" value="数&lt;br style=&quot;font-size: 17px;&quot;&gt;据&lt;br style=&quot;font-size: 17px;&quot;&gt;服&lt;br style=&quot;font-size: 17px;&quot;&gt;务" style="text;html=1;strokeColor=none;fillColor=none;align=center;verticalAlign=middle;whiteSpace=wrap;rounded=0;sketch=1;hachureGap=4;fontFamily=Architects Daughter;fontSource=https%3A%2F%2Ffonts.googleapis.com%2Fcss%3Ffamily%3DArchitects%2BDaughter;fontSize=17;fontColor=#000000;" parent="uAcvavNCiAYMZfsBuxs1-20" vertex="1">
          <mxGeometry width="49.673507462686565" height="103" as="geometry" />
        </mxCell>
        <object placeholders="1" c4Name="指挥中心基于云平台的微服务架构" c4Type="SystemScopeBoundary" c4Application="指挥中心基于云平台的微服务架构" label="&lt;font style=&quot;font-size: 28px;&quot;&gt;&lt;b style=&quot;font-size: 28px;&quot;&gt;&lt;div style=&quot;text-align: left; font-size: 28px;&quot;&gt;%c4Name%&lt;/div&gt;&lt;/b&gt;&lt;/font&gt;&lt;div style=&quot;text-align: left; font-size: 28px;&quot;&gt;[%c4Application%]&lt;/div&gt;" id="_vJU1HKxtp4z29YcLN0C-1">
          <mxCell style="rounded=1;fontSize=28;whiteSpace=wrap;html=1;dashed=1;arcSize=20;fillColor=none;strokeColor=#666666;fontColor=#333333;labelBackgroundColor=none;align=left;verticalAlign=bottom;labelBorderColor=none;spacingTop=0;spacing=10;dashPattern=8 4;metaEdit=1;rotatable=0;perimeter=rectanglePerimeter;noLabel=0;labelPadding=0;allowArrows=0;connectable=0;expand=0;recursiveResize=0;editable=1;pointerEvents=0;absoluteArcSize=1;points=[[0.25,0,0],[0.5,0,0],[0.75,0,0],[1,0.25,0],[1,0.5,0],[1,0.75,0],[0.75,1,0],[0.5,1,0],[0.25,1,0],[0,0.75,0],[0,0.5,0],[0,0.25,0]];sketch=1;hachureGap=4;fontFamily=Architects Daughter;fontSource=https%3A%2F%2Ffonts.googleapis.com%2Fcss%3Ffamily%3DArchitects%2BDaughter;" vertex="1" parent="1">
            <mxGeometry x="-1057" y="-1050" width="2741" height="1877" as="geometry" />
          </mxCell>
        </object>
        <mxCell id="_vJU1HKxtp4z29YcLN0C-22" value="" style="group" vertex="1" connectable="0" parent="1">
          <mxGeometry x="1249" y="546" width="398" height="258" as="geometry" />
        </mxCell>
        <mxCell id="_vJU1HKxtp4z29YcLN0C-18" value="图例说明：" style="text;html=1;align=center;verticalAlign=middle;resizable=0;points=[];autosize=1;strokeColor=none;fillColor=none;sketch=1;hachureGap=4;fontFamily=Architects Daughter;fontSource=https%3A%2F%2Ffonts.googleapis.com%2Fcss%3Ffamily%3DArchitects%2BDaughter;fontSize=37;fontColor=#000000;" vertex="1" parent="_vJU1HKxtp4z29YcLN0C-22">
          <mxGeometry width="195" height="48" as="geometry" />
        </mxCell>
        <mxCell id="_vJU1HKxtp4z29YcLN0C-19" value="需开发系统" style="rounded=0;whiteSpace=wrap;html=1;sketch=1;hachureGap=4;fontFamily=Architects Daughter;fontSource=https%3A%2F%2Ffonts.googleapis.com%2Fcss%3Ffamily%3DArchitects%2BDaughter;fontSize=28;fontColor=#000000;fillColor=#1ba1e2;strokeColor=#006EAF;align=left;" vertex="1" parent="_vJU1HKxtp4z29YcLN0C-22">
          <mxGeometry y="70.94999999999999" width="398.00000000000006" height="62.35000000000001" as="geometry" />
        </mxCell>
        <mxCell id="_vJU1HKxtp4z29YcLN0C-20" value="未来可能涉及系统" style="rounded=0;whiteSpace=wrap;html=1;sketch=1;hachureGap=4;fontFamily=Architects Daughter;fontSource=https%3A%2F%2Ffonts.googleapis.com%2Fcss%3Ffamily%3DArchitects%2BDaughter;fontSize=28;fillColor=#60a917;strokeColor=#2D7600;align=left;fontColor=#000000;" vertex="1" parent="_vJU1HKxtp4z29YcLN0C-22">
          <mxGeometry y="133.3" width="398.00000000000006" height="62.35000000000001" as="geometry" />
        </mxCell>
        <mxCell id="_vJU1HKxtp4z29YcLN0C-21" value="会使用系统" style="rounded=0;whiteSpace=wrap;html=1;sketch=1;hachureGap=4;fontFamily=Architects Daughter;fontSource=https%3A%2F%2Ffonts.googleapis.com%2Fcss%3Ffamily%3DArchitects%2BDaughter;fontSize=28;fillColor=#bac8d3;strokeColor=#23445d;align=left;" vertex="1" parent="_vJU1HKxtp4z29YcLN0C-22">
          <mxGeometry y="195.65" width="398.00000000000006" height="62.35000000000001" as="geometry" />
        </mxCell>
        <mxCell id="bhfUMY4nfHSgezwKd5pS-1" value="软件即服务（SaaS）" style="text;strokeColor=none;fillColor=none;html=1;align=center;verticalAlign=middle;whiteSpace=wrap;rounded=0;sketch=1;hachureGap=4;fontFamily=Architects Daughter;fontSource=https%3A%2F%2Ffonts.googleapis.com%2Fcss%3Ffamily%3DArchitects%2BDaughter;fontSize=37;fontColor=#000000;" vertex="1" parent="1">
          <mxGeometry x="-1059" y="-744.5" width="238" height="46" as="geometry" />
        </mxCell>
        <mxCell id="bhfUMY4nfHSgezwKd5pS-2" value="数据即服务（DaaS）" style="text;strokeColor=none;fillColor=none;html=1;align=center;verticalAlign=middle;whiteSpace=wrap;rounded=0;sketch=1;hachureGap=4;fontFamily=Architects Daughter;fontSource=https%3A%2F%2Ffonts.googleapis.com%2Fcss%3Ffamily%3DArchitects%2BDaughter;fontSize=37;fontColor=#000000;" vertex="1" parent="1">
          <mxGeometry x="-1065" y="-273" width="238" height="46" as="geometry" />
        </mxCell>
        <mxCell id="bhfUMY4nfHSgezwKd5pS-3" value="平台即服务（PaaS）" style="text;strokeColor=none;fillColor=none;html=1;align=center;verticalAlign=middle;whiteSpace=wrap;rounded=0;sketch=1;hachureGap=4;fontFamily=Architects Daughter;fontSource=https%3A%2F%2Ffonts.googleapis.com%2Fcss%3Ffamily%3DArchitects%2BDaughter;fontSize=37;fontColor=#000000;" vertex="1" parent="1">
          <mxGeometry x="-1059" y="254" width="238" height="46" as="geometry" />
        </mxCell>
        <mxCell id="bhfUMY4nfHSgezwKd5pS-4" value="基础设施服务（IaaS）" style="text;strokeColor=none;fillColor=none;html=1;align=center;verticalAlign=middle;whiteSpace=wrap;rounded=0;sketch=1;hachureGap=4;fontFamily=Architects Daughter;fontSource=https%3A%2F%2Ffonts.googleapis.com%2Fcss%3Ffamily%3DArchitects%2BDaughter;fontSize=37;fontColor=#000000;" vertex="1" parent="1">
          <mxGeometry x="-1050" y="610" width="238" height="46" as="geometry" />
        </mxCell>
        <UserObject label="" link="data:page/id,SXrVRVNj6cb-xHmxNzFF" id="bhfUMY4nfHSgezwKd5pS-5">
          <mxCell style="group" vertex="1" connectable="0" parent="1">
            <mxGeometry x="-807" y="-1005" width="1644.5" height="567" as="geometry" />
          </mxCell>
        </UserObject>
        <UserObject label="" id="yOwxqxkXujApihUdTshh-106">
          <mxCell style="rounded=0;whiteSpace=wrap;html=1;sketch=1;hachureGap=4;fontFamily=Architects Daughter;fontSource=https%3A%2F%2Ffonts.googleapis.com%2Fcss%3Ffamily%3DArchitects%2BDaughter;fontSize=25;strokeColor=#10739e;fillColor=#b1ddf0;" parent="bhfUMY4nfHSgezwKd5pS-5" vertex="1">
            <mxGeometry width="1644.5" height="567" as="geometry" />
          </mxCell>
        </UserObject>
        <mxCell id="yOwxqxkXujApihUdTshh-109" value="&lt;span style=&quot;&quot;&gt;基础公共&lt;/span&gt;&lt;span style=&quot;&quot;&gt;微服务&lt;/span&gt;" style="rounded=0;whiteSpace=wrap;html=1;sketch=1;hachureGap=4;fontFamily=Architects Daughter;fontSource=https%3A%2F%2Ffonts.googleapis.com%2Fcss%3Ffamily%3DArchitects%2BDaughter;fontSize=25;fontColor=#000000;strokeColor=#006EAF;fillColor=#1ba1e2;" parent="bhfUMY4nfHSgezwKd5pS-5" vertex="1">
          <mxGeometry x="15.75" y="465" width="1612" height="78" as="geometry" />
        </mxCell>
        <mxCell id="yOwxqxkXujApihUdTshh-140" value="" style="rounded=0;whiteSpace=wrap;html=1;sketch=1;hachureGap=4;fontFamily=Architects Daughter;fontSource=https%3A%2F%2Ffonts.googleapis.com%2Fcss%3Ffamily%3DArchitects%2BDaughter;fontSize=25;fontColor=#000000;strokeColor=default;" parent="bhfUMY4nfHSgezwKd5pS-5" vertex="1">
          <mxGeometry x="14.75" y="333" width="1612" height="109" as="geometry" />
        </mxCell>
        <mxCell id="yOwxqxkXujApihUdTshh-141" value="" style="rounded=0;whiteSpace=wrap;html=1;sketch=1;hachureGap=4;fontFamily=Architects Daughter;fontSource=https%3A%2F%2Ffonts.googleapis.com%2Fcss%3Ffamily%3DArchitects%2BDaughter;fontSize=25;fontColor=#000000;strokeColor=default;" parent="bhfUMY4nfHSgezwKd5pS-5" vertex="1">
          <mxGeometry x="19.75" y="47" width="1612" height="267" as="geometry" />
        </mxCell>
        <mxCell id="yOwxqxkXujApihUdTshh-142" value="综&lt;br&gt;合&lt;br&gt;应&lt;br&gt;用&lt;br&gt;业&lt;br&gt;务&lt;br&gt;域" style="text;html=1;align=center;verticalAlign=middle;resizable=0;points=[];autosize=1;strokeColor=none;fillColor=none;sketch=1;hachureGap=4;fontFamily=Architects Daughter;fontSource=https%3A%2F%2Ffonts.googleapis.com%2Fcss%3Ffamily%3DArchitects%2BDaughter;fontSize=25;fontColor=#000000;" parent="bhfUMY4nfHSgezwKd5pS-5" vertex="1">
          <mxGeometry x="34.75" y="76" width="35" height="214" as="geometry" />
        </mxCell>
        <mxCell id="yOwxqxkXujApihUdTshh-143" value="&lt;span style=&quot;&quot;&gt;基础业务微服务&lt;/span&gt;" style="text;html=1;align=center;verticalAlign=middle;resizable=0;points=[];autosize=1;strokeColor=none;fillColor=none;sketch=1;hachureGap=4;fontFamily=Architects Daughter;fontSource=https%3A%2F%2Ffonts.googleapis.com%2Fcss%3Ffamily%3DArchitects%2BDaughter;fontSize=25;fontColor=#000000;" parent="bhfUMY4nfHSgezwKd5pS-5" vertex="1">
          <mxGeometry x="28.75" y="370.5" width="185" height="34" as="geometry" />
        </mxCell>
        <mxCell id="yOwxqxkXujApihUdTshh-144" value="单一业务服务" style="rounded=0;whiteSpace=wrap;html=1;sketch=1;hachureGap=4;fontFamily=Architects Daughter;fontSource=https%3A%2F%2Ffonts.googleapis.com%2Fcss%3Ffamily%3DArchitects%2BDaughter;fontSize=25;strokeColor=#006EAF;fillColor=#1ba1e2;fontColor=#000000;" parent="bhfUMY4nfHSgezwKd5pS-5" vertex="1">
          <mxGeometry x="241.75" y="347.5" width="617" height="80" as="geometry" />
        </mxCell>
        <mxCell id="yOwxqxkXujApihUdTshh-145" value="聚合业务服务" style="rounded=0;whiteSpace=wrap;html=1;sketch=1;hachureGap=4;fontFamily=Architects Daughter;fontSource=https%3A%2F%2Ffonts.googleapis.com%2Fcss%3Ffamily%3DArchitects%2BDaughter;fontSize=25;fontColor=#000000;strokeColor=#006EAF;fillColor=#1ba1e2;" parent="bhfUMY4nfHSgezwKd5pS-5" vertex="1">
          <mxGeometry x="927.75" y="347.5" width="675" height="80" as="geometry" />
        </mxCell>
        <mxCell id="uAcvavNCiAYMZfsBuxs1-9" value="" style="group" vertex="1" connectable="0" parent="bhfUMY4nfHSgezwKd5pS-5">
          <mxGeometry x="89.75" y="60" width="1453" height="239" as="geometry" />
        </mxCell>
        <mxCell id="uAcvavNCiAYMZfsBuxs1-1" value="&lt;font style=&quot;font-size: 25px;&quot;&gt;要情指令业务域&lt;/font&gt;" style="rounded=0;whiteSpace=wrap;html=1;sketch=1;hachureGap=4;fontFamily=Architects Daughter;fontSource=https%3A%2F%2Ffonts.googleapis.com%2Fcss%3Ffamily%3DArchitects%2BDaughter;fontSize=20;fontColor=#000000;fillColor=#1ba1e2;strokeColor=#006EAF;" vertex="1" parent="uAcvavNCiAYMZfsBuxs1-9">
          <mxGeometry y="2.558886509636019" width="184.59421557521492" height="236.44111349036402" as="geometry" />
        </mxCell>
        <mxCell id="uAcvavNCiAYMZfsBuxs1-2" value="&lt;font style=&quot;font-size: 25px;&quot;&gt;智慧接警业务域&lt;/font&gt;" style="rounded=0;whiteSpace=wrap;html=1;sketch=1;hachureGap=4;fontFamily=Architects Daughter;fontSource=https%3A%2F%2Ffonts.googleapis.com%2Fcss%3Ffamily%3DArchitects%2BDaughter;fontSize=20;fontColor=#000000;fillColor=#1ba1e2;strokeColor=#006EAF;" vertex="1" parent="uAcvavNCiAYMZfsBuxs1-9">
          <mxGeometry x="211.94156477216063" y="1.983402489626556" width="184.59421557521492" height="236.44111349036402" as="geometry" />
        </mxCell>
        <mxCell id="uAcvavNCiAYMZfsBuxs1-3" value="&lt;font style=&quot;font-size: 25px;&quot;&gt;智慧处警业务域&lt;/font&gt;" style="rounded=0;whiteSpace=wrap;html=1;sketch=1;hachureGap=4;fontFamily=Architects Daughter;fontSource=https%3A%2F%2Ffonts.googleapis.com%2Fcss%3Ffamily%3DArchitects%2BDaughter;fontSize=20;fontColor=#000000;fillColor=#1ba1e2;strokeColor=#006EAF;" vertex="1" parent="uAcvavNCiAYMZfsBuxs1-9">
          <mxGeometry x="422.80179503017763" y="1.983402489626556" width="184.59421557521492" height="236.44111349036402" as="geometry" />
        </mxCell>
        <mxCell id="uAcvavNCiAYMZfsBuxs1-4" value="&lt;font style=&quot;font-size: 25px;&quot;&gt;重大指挥业务域&lt;/font&gt;" style="rounded=0;whiteSpace=wrap;html=1;sketch=1;hachureGap=4;fontFamily=Architects Daughter;fontSource=https%3A%2F%2Ffonts.googleapis.com%2Fcss%3Ffamily%3DArchitects%2BDaughter;fontSize=20;fontColor=#000000;fillColor=#1ba1e2;strokeColor=#006EAF;" vertex="1" parent="uAcvavNCiAYMZfsBuxs1-9">
          <mxGeometry x="634.7433598023382" y="0.991701244813278" width="184.59421557521492" height="236.44111349036402" as="geometry" />
        </mxCell>
        <mxCell id="uAcvavNCiAYMZfsBuxs1-5" value="&lt;font style=&quot;font-size: 25px;&quot;&gt;应急指挥业务域&lt;/font&gt;" style="rounded=0;whiteSpace=wrap;html=1;sketch=1;hachureGap=4;fontFamily=Architects Daughter;fontSource=https%3A%2F%2Ffonts.googleapis.com%2Fcss%3Ffamily%3DArchitects%2BDaughter;fontSize=20;fontColor=#000000;fillColor=#1ba1e2;strokeColor=#006EAF;" vertex="1" parent="uAcvavNCiAYMZfsBuxs1-9">
          <mxGeometry x="845.6035900603553" width="184.59421557521492" height="236.44111349036402" as="geometry" />
        </mxCell>
        <mxCell id="uAcvavNCiAYMZfsBuxs1-6" value="&lt;font style=&quot;font-size: 25px;&quot;&gt;日常指挥业务域&lt;/font&gt;" style="rounded=0;whiteSpace=wrap;html=1;sketch=1;hachureGap=4;fontFamily=Architects Daughter;fontSource=https%3A%2F%2Ffonts.googleapis.com%2Fcss%3Ffamily%3DArchitects%2BDaughter;fontSize=20;fontColor=#000000;fillColor=#1ba1e2;strokeColor=#006EAF;" vertex="1" parent="uAcvavNCiAYMZfsBuxs1-9">
          <mxGeometry x="1057.545154832516" width="184.59421557521492" height="236.44111349036402" as="geometry" />
        </mxCell>
        <mxCell id="uAcvavNCiAYMZfsBuxs1-8" value="&lt;font style=&quot;font-size: 25px;&quot;&gt;风险管控业务域&lt;/font&gt;" style="rounded=0;whiteSpace=wrap;html=1;sketch=1;hachureGap=4;fontFamily=Architects Daughter;fontSource=https%3A%2F%2Ffonts.googleapis.com%2Fcss%3Ffamily%3DArchitects%2BDaughter;fontSize=20;fontColor=#000000;fillColor=#1ba1e2;strokeColor=#006EAF;" vertex="1" parent="uAcvavNCiAYMZfsBuxs1-9">
          <mxGeometry x="1268.4057844247852" y="0.991701244813278" width="184.59421557521492" height="236.44111349036402" as="geometry" />
        </mxCell>
        <mxCell id="uAcvavNCiAYMZfsBuxs1-10" value="。。。" style="text;html=1;align=center;verticalAlign=middle;resizable=0;points=[];autosize=1;strokeColor=none;fillColor=none;sketch=1;hachureGap=4;fontFamily=Architects Daughter;fontSource=https%3A%2F%2Ffonts.googleapis.com%2Fcss%3Ffamily%3DArchitects%2BDaughter;fontSize=25;fontColor=#000000;" vertex="1" parent="bhfUMY4nfHSgezwKd5pS-5">
          <mxGeometry x="1549.75" y="162.5" width="85" height="34" as="geometry" />
        </mxCell>
      </root>
    </mxGraphModel>
  </diagram>
  <diagram id="SXrVRVNj6cb-xHmxNzFF" name="服务分层分域结构图">
    <mxGraphModel dx="2469" dy="911" grid="0" gridSize="10" guides="1" tooltips="1" connect="1" arrows="1" fold="1" page="0" pageScale="1" pageWidth="827" pageHeight="1169" math="0" shadow="0">
      <root>
        <mxCell id="0" />
        <mxCell id="1" parent="0" />
        <mxCell id="fKK1DUhNzJm0tn0OFm6T-1" value="" style="rounded=0;whiteSpace=wrap;html=1;sketch=1;hachureGap=4;fontFamily=Architects Daughter;fontSource=https%3A%2F%2Ffonts.googleapis.com%2Fcss%3Ffamily%3DArchitects%2BDaughter;fontSize=17;fontColor=#000000;" vertex="1" parent="1">
          <mxGeometry x="-442" y="452" width="1143" height="274" as="geometry" />
        </mxCell>
        <mxCell id="OFbA8Pb_4YGNJILl194w-1" value="基础公共微服务" style="text;strokeColor=none;fillColor=none;html=1;align=center;verticalAlign=middle;whiteSpace=wrap;rounded=0;sketch=1;hachureGap=4;fontFamily=Architects Daughter;fontSource=https%3A%2F%2Ffonts.googleapis.com%2Fcss%3Ffamily%3DArchitects%2BDaughter;fontSize=17;fontColor=#000000;" vertex="1" parent="1">
          <mxGeometry x="-522" y="492" width="33" height="204" as="geometry" />
        </mxCell>
        <mxCell id="OFbA8Pb_4YGNJILl194w-2" value="实时通知服务" style="rounded=0;whiteSpace=wrap;html=1;sketch=1;hachureGap=4;fontFamily=Architects Daughter;fontSource=https%3A%2F%2Ffonts.googleapis.com%2Fcss%3Ffamily%3DArchitects%2BDaughter;fontSize=17;fillColor=#b1ddf0;strokeColor=#10739e;" vertex="1" parent="1">
          <mxGeometry x="-408" y="474" width="171" height="60" as="geometry" />
        </mxCell>
        <mxCell id="1el2_7EATQn39qcMbeRZ-1" value="分布式文件服务" style="rounded=0;whiteSpace=wrap;html=1;sketch=1;hachureGap=4;fontFamily=Architects Daughter;fontSource=https%3A%2F%2Ffonts.googleapis.com%2Fcss%3Ffamily%3DArchitects%2BDaughter;fontSize=17;fillColor=#b1ddf0;strokeColor=#10739e;" vertex="1" parent="1">
          <mxGeometry x="-217" y="474" width="171" height="60" as="geometry" />
        </mxCell>
        <mxCell id="1el2_7EATQn39qcMbeRZ-2" value="PUC数据适配服务&lt;br&gt;（data4puc）" style="rounded=0;whiteSpace=wrap;html=1;sketch=1;hachureGap=4;fontFamily=Architects Daughter;fontSource=https%3A%2F%2Ffonts.googleapis.com%2Fcss%3Ffamily%3DArchitects%2BDaughter;fontSize=17;fillColor=#b1ddf0;strokeColor=#10739e;" vertex="1" parent="1">
          <mxGeometry x="-26" y="474" width="171" height="60" as="geometry" />
        </mxCell>
        <mxCell id="1el2_7EATQn39qcMbeRZ-3" value="GIS可视化服务" style="rounded=0;whiteSpace=wrap;html=1;sketch=1;hachureGap=4;fontFamily=Architects Daughter;fontSource=https%3A%2F%2Ffonts.googleapis.com%2Fcss%3Ffamily%3DArchitects%2BDaughter;fontSize=17;fillColor=#b1ddf0;strokeColor=#10739e;" vertex="1" parent="1">
          <mxGeometry x="165" y="474" width="171" height="60" as="geometry" />
        </mxCell>
        <mxCell id="1el2_7EATQn39qcMbeRZ-4" value="" style="rounded=0;whiteSpace=wrap;html=1;sketch=1;hachureGap=4;fontFamily=Architects Daughter;fontSource=https%3A%2F%2Ffonts.googleapis.com%2Fcss%3Ffamily%3DArchitects%2BDaughter;fontSize=17;fontColor=#000000;" vertex="1" parent="1">
          <mxGeometry x="-442" y="164" width="1143" height="274" as="geometry" />
        </mxCell>
        <mxCell id="1el2_7EATQn39qcMbeRZ-5" value="基础业务微服务" style="text;strokeColor=none;fillColor=none;html=1;align=center;verticalAlign=middle;whiteSpace=wrap;rounded=0;sketch=1;hachureGap=4;fontFamily=Architects Daughter;fontSource=https%3A%2F%2Ffonts.googleapis.com%2Fcss%3Ffamily%3DArchitects%2BDaughter;fontSize=17;fontColor=#000000;" vertex="1" parent="1">
          <mxGeometry x="-517" y="202" width="33" height="204" as="geometry" />
        </mxCell>
        <mxCell id="1el2_7EATQn39qcMbeRZ-6" value="GIS可视化服务" style="rounded=0;whiteSpace=wrap;html=1;sketch=1;hachureGap=4;fontFamily=Architects Daughter;fontSource=https%3A%2F%2Ffonts.googleapis.com%2Fcss%3Ffamily%3DArchitects%2BDaughter;fontSize=17;fillColor=#b1ddf0;strokeColor=#10739e;" vertex="1" parent="1">
          <mxGeometry x="-413" y="238" width="171" height="60" as="geometry" />
        </mxCell>
      </root>
    </mxGraphModel>
  </diagram>
</mxfile>
